<svg xmlns="http://www.w3.org/2000/svg" width="81" height="99" viewBox="0 0 81 99">
    <g fill="none" fill-rule="evenodd">
        <path stroke="#3FA9F5" d="M59.367 14.003c.06.462-.177 1.26.279 2.178 2.51 5.048 5.905 9.696 6.97 15.37 2.599-.465 2.995 2.632 5.077 2.817v2.215c2.482 1.337 5.316-.05 8.044.881 1.248 3.576-2.331 5.773-2.7 8.579-9.926 6.042-11.319 14.596-7.84 24.13l-7.034 7.023v5.66c-3.715 4.633-5.429 10.519-10.936 13.677-2.581-.45-4.961 2.627-8.318.975-1.165-5.022-5.205-9.59-4.496-15.037l-4.244-8.266c3.587-6.868 3.716-13.693-2.501-19.751v-8.597c-2.095-.686-5.058-.184-5.725-2.872-2.933-1.068-5.017.696-7.34 1.01-2.166.292-4.505-.38-6.179 1.506-5.152-2.599-8.54-6.657-11.212-12.698 0-1.17.317-3.496-.069-5.698-.72-4.13 1.41-7.547 3.445-10.277 2.492-3.34 5.344-6.365 7.16-10.209.463-.979 1.573-1.65 2.616-2.695C20.37 4.434 26.208 2.3 31.993 1c2.01 1.58.358 3.656 1.163 5.131a28060.3 28060.3 0 0 0 9.648 4.767c1.422-.31 1.336-1.242 1.157-2.596 5.425-.509 10.529 2.608 16.317.699l-.911 5.002z"/>
        <path d="M-32-15h145v128H-32z"/>
        <path stroke="#3FA9F5" d="M79 68c.028 6.37-1.368 11.855-3.642 17H72V74.136c2.264-1.791 5.845-2.292 7-6.136z"/>
    </g>
</svg>
