<svg xmlns="http://www.w3.org/2000/svg" xmlns:xlink="http://www.w3.org/1999/xlink" width="172" height="152" viewBox="0 0 172 152">
    <defs>
        <path id="b" d="M0 0h126v63c0 34.794-28.206 63-63 63S0 97.794 0 63V0z"/>
        <filter id="a" width="161.1%" height="161.1%" x="-30.6%" y="-29%" filterUnits="objectBoundingBox">
            <feMorphology in="SourceAlpha" radius="1.5" result="shadowSpreadOuter1"/>
            <feOffset dy="2" in="shadowSpreadOuter1" result="shadowOffsetOuter1"/>
            <feGaussianBlur in="shadowOffsetOuter1" result="shadowBlurOuter1" stdDeviation="14"/>
            <feColorMatrix in="shadowBlurOuter1" values="0 0 0 0 0.141176471 0 0 0 0 0.384313725 0 0 0 0 0.556862745 0 0 0 0.472514719 0"/>
        </filter>
    </defs>
    <g fill="none" fill-rule="evenodd">
        <g transform="translate(21)">
            <use fill="#000" filter="url(#a)" xlink:href="#b"/>
            <use fill="#FFF" xlink:href="#b"/>
        </g>
        <g fill-rule="nonzero">
            <g fill="#3FA9F5">
                <path d="M101.238 86.903c-.321.001-.64-.07-.93-.207l-.258-.12.208-.195c.48-.452.477-1.004.473-1.587v-.384-.253a3.099 3.099 0 0 1 .35-1.626c.165-.288.119-.875-.116-1.461-.353-.882-.623-2.014.42-2.946l.084-.073c.466-.414.866-.767.823-1.488 0-.172-.019-.345-.027-.517-.034-.978-.069-1.918-.903-2.589a1.576 1.576 0 0 1-.7-1.032.877.877 0 0 1 .253-.66.865.865 0 0 0 .197-.598 1.43 1.43 0 0 1 .126-.575.742.742 0 0 0 .085-.648.74.74 0 0 0-.6-.265 9.192 9.192 0 0 0-1.127 0c-.384 0-.77-.046-.815-.655 0-.116-.054-.142-.07-.15a.54.54 0 0 0-.415.038c-1.506.64-3.146.903-4.777.767a1.025 1.025 0 0 0-.592.146c-.854.502-1.68.226-2.442-.15l-.12-.057c-.942-.46-1.827-.894-2.442-1.856a6.624 6.624 0 0 0-1.296-1.331l-.146-.123c-1.093-.94-1.316-1.879-.723-3.049.415-.82.646-1.45-.146-2.06-.412-.317-.239-.674-.097-.958l.035-.069a12.27 12.27 0 0 1 1.442-2.148c.378-.46.73-.942 1.054-1.442.198-.233.47-.392.77-.452l.107-.038c.865-.307 1.154-.695 1.035-1.389a.866.866 0 0 1 .384-.828l.12-.111c.138-.142.284-.28.43-.418.277-.246.534-.513.77-.798a1.6 1.6 0 0 1 .657-.491 1.31 1.31 0 0 1-.9-.384.802.802 0 0 0-.207 0 2.245 2.245 0 0 1-.231 0 1.304 1.304 0 0 0-.239 0c-.234 0-.673.054-.742-.383l-.027-.188a1.531 1.531 0 0 0-.3-.874l-.12-.142.135-.127c.35-.33.32-.732.289-1.2a2.387 2.387 0 0 1 .1-1.12l.046-.123h3.558a.765.765 0 0 0 .134-.648 2.18 2.18 0 0 1 0-.314v-.17c.028-.138.028-.282 0-.421-.492.046-.657-.322-.769-.564-.111-.241-.17-.353-.404-.264a.57.57 0 0 1-.53-.046.575.575 0 0 1-.227-.507.498.498 0 0 1 .473-.533.517.517 0 0 0 .142-.038c.241-.096.49-.168.746-.215a2.35 2.35 0 0 0 1.223-.537c-.9-.034-1.623-.042-2.373.31-.311.15-.446-.041-.47-.08a.505.505 0 0 1 .14-.583.589.589 0 0 1-.485-.249c-.112-.219.038-.456.227-.767l.065-.104a1.39 1.39 0 0 0 .227-.444c.027-.17-.215-.326-.427-.41a.231.231 0 0 0-.196 0 .207.207 0 0 0-.054.164v.564a.811.811 0 0 1-.161.667.632.632 0 0 1-.527.134.852.852 0 0 0-.566.188l-.157.096a.86.86 0 0 1-1.22-.207l-.119-.184.196-.092c.12-.057.143-.1.146-.111a1.135 1.135 0 0 0-.096-.265.716.716 0 0 1 .046-.959 2.508 2.508 0 0 1 1.881-.767c-.28-.6-.27-1.294.023-1.886l.089-.173.177.092c.125.063.253.12.384.169.473.188 1.012.383 1.123 1.307.054.45.704 1.024 1.285 1.339.297.191.518.48.623.817.188.418.315.656.738.636.424-.019.662-.306.931-.636.159-.22.35-.414.57-.575.04-.028.08-.057.119-.089a.909.909 0 0 1 .427-.218c.138 0 .238-.062.265-.13a.184.184 0 0 0-.062-.18 1.53 1.53 0 0 1-.323-1.385c0-.112.027-.223.031-.334v-.23l.223.05c.923.214.889.863.862 1.384v.326c.769.315 1.538.13 2.373-.065a7.581 7.581 0 0 1 1.415-.242.316.316 0 0 0 .25-.142 1.29 1.29 0 0 0 .131-1.004s-.035 0-.058-.035a.407.407 0 0 1-.204-.28.306.306 0 0 1 .093-.25.732.732 0 0 1 .411-.199c.093-.023.204-.046.223-.084.02-.038.02-.084 0-.192-.019-.107-.084-.073-.261-.096-.177-.023-.477-.057-.48-.383 0-.245-.043-.265-.243-.345a2.65 2.65 0 0 1-.239-.115c-.857-.483-1.404-1.224-1.242-1.688a.484.484 0 0 1 .338-.31c-.573-.484-.919-.767-1.126-.894a.563.563 0 0 1-.158.733.303.303 0 0 0-.085.1c-.227.686-.138.973.439 1.403l.169.123c.265.18.565.383.592.717a.95.95 0 0 1-.384.732.532.532 0 0 0 0 .234.89.89 0 0 1 .384.671c-.049.307-.232.575-.5.733-.076.058-.148.12-.215.188-.292.303-.539.49-.77.418-.23-.073-.357-.426-.422-.767-.09-.358-.31-.67-.616-.878a2.511 2.511 0 0 1-.527-.556.872.872 0 0 0-.292.256 1.095 1.095 0 0 1-.385.326c-.715.311-1.392.031-1.804-.767-.05-.092-.092-.184-.134-.276a2.46 2.46 0 0 0-.262-.48c-.43-.544-.384-1.073.162-1.575.084-.077.161-.161.238-.246a2.59 2.59 0 0 1 .473-.44c.412-.277.473-.649.435-1.151a9.5 9.5 0 0 1 0-1.097v-.073a2.227 2.227 0 0 1 1.07-1.895 2.044 2.044 0 0 1 2.01 0 6.213 6.213 0 0 0 1.566.503c.266.061.53.119.77.195.685.19 1.303.568 1.784 1.09l.088.092-.053.119a.631.631 0 0 1-.77.337.771.771 0 0 0-.265 0c.362.35.806.603 1.292.736l.07.027c.076-.057.1-.13.1-.268a1.4 1.4 0 0 0-.15-.541c-.22-.36-.23-.808-.027-1.177-.385-.384-.15-.748 0-.994.027-.05.057-.096.088-.145-.058-.07-.185-.196-.273-.284a4.367 4.367 0 0 1-.385-.384c-.138-.18 0-.49.035-.552a.53.53 0 0 1 .423-.28.47.47 0 0 1 .385.123 9.162 9.162 0 0 0 2.188 1.71c.511.326 1.002.682 1.47 1.066.26.223.503.468.742.702.47.523 1.025.962 1.642 1.3.375.22.664.561.82.967.108.248.259.475.445.67.466.438.897.925 1.316 1.397l.111.123c1.812 2.04 3.346 4.525 4.831 7.823.104.234.212.468.32.702.826 1.81 1.68 3.678 1.834 5.776.025.203.08.402.161.59.14.319.208.665.197 1.013-.02.335-.02.67 0 1.005v.644h-.173c-1.185.123-1.685-.598-2.12-1.235a5.826 5.826 0 0 0-.384-.525.57.57 0 0 0-.043.464c.37.392.643.865.797 1.38.053.142.107.284.165.422.088.203.215.326.35.342.135.015.327-.104.485-.323l.169-.237.15.249c.45.732.957 1.56.196 2.52a1.07 1.07 0 0 0 .023.383c.22 1.212-.292 2.163-.792 3.068-.166.303-.335.621-.473.936a1.641 1.641 0 0 1-1.285 1.032c-.13 0-.162.026-.138.326.004.071.004.143 0 .214a.356.356 0 0 0 0 .158.536.536 0 0 0 .326.026c.266-.233.516-.498.77-.767.104-.115.215-.23.33-.349l.227-.237.097.314c.16.576.15 1.186-.031 1.757-.67 2.757-2.308 5.12-3.616 7.018a7.098 7.098 0 0 0-1.211 3.244c-.116.948-.385 2.325-1.516 3.348a28.42 28.42 0 0 0-1.026 1.013l-.466.472-.546.54c-.19.22-.323.484-.385.767a1.917 1.917 0 0 1-.719 1.151 4.35 4.35 0 0 0-1.346 1.216c-.585.886-1.462 1.453-2.308 2.002-.507.31-.99.66-1.446 1.043l-.058.05h-.076a3.258 3.258 0 0 0-1.054.218c-.39.152-.802.242-1.22.265zm-.519-.46a2.607 2.607 0 0 0 1.639-.154 3.832 3.832 0 0 1 1.104-.237c.454-.377.935-.72 1.438-1.028.85-.549 1.654-1.07 2.196-1.891.387-.537.88-.989 1.45-1.327.3-.233.503-.57.57-.943a2 2 0 0 1 .465-.92l.542-.542.462-.467c.334-.342.684-.695 1.042-1.024.77-.725 1.22-1.684 1.396-3.115a7.477 7.477 0 0 1 1.277-3.413c1.646-2.385 2.95-4.406 3.554-6.903.123-.394.162-.81.115-1.22a.918.918 0 0 1-.084.089c-.27.291-.527.563-.808.813a.771.771 0 0 1-.704.046.464.464 0 0 1-.261-.556v-.12a.86.86 0 0 1 .1-.582l-.07-.073a10.059 10.059 0 0 0-.361-.35c-.523-.498-.977-.927-.858-1.675-.385-.736-.677-1.515-.973-2.267a17.236 17.236 0 0 0-1.562-3.286.352.352 0 0 1-.069-.288.51.51 0 0 1 .277-.295l.05-.027h.058c.77.054 1.154.652 1.45 1.23.188.384.384.768.6 1.151.904 1.673 1.834 3.398 1.72 5.688v.03h.126c.441-.078.808-.383.965-.8.147-.335.32-.657.489-.971.488-.901.95-1.757.77-2.815a.918.918 0 0 1 .045-.714c.5-.632.32-1.15-.084-1.86a.805.805 0 0 1-.654.265.857.857 0 0 1-.662-.568c-.061-.145-.115-.295-.169-.44a3.066 3.066 0 0 0-.708-1.24.67.67 0 0 1-.146-.463.958.958 0 0 1 .32-.706l.13-.115.127.119c.222.223.42.47.589.736.384.587.75 1.097 1.588 1.082v-.28a8.753 8.753 0 0 1 .02-1.051 1.913 1.913 0 0 0-.178-.84 2.751 2.751 0 0 1-.184-.698c-.146-2.029-.989-3.866-1.8-5.641l-.339-.737c-1.465-3.264-2.98-5.718-4.765-7.724l-.112-.126c-.411-.464-.838-.944-1.292-1.37a2.684 2.684 0 0 1-.523-.766 1.589 1.589 0 0 0-.642-.79 6.735 6.735 0 0 1-1.747-1.381c-.23-.23-.469-.468-.719-.683a14.84 14.84 0 0 0-1.434-1.04 9.633 9.633 0 0 1-2.204-1.802c-.043 0-.158 0-.196.066a.59.59 0 0 0-.054.168c.084.104.204.219.319.334.3.295.485.472.385.667-.043.085-.097.165-.143.242-.188.288-.254.383.043.602l.173.127-.143.157c-.269.295-.188.533-.023.932.106.217.166.453.177.694a.663.663 0 0 1-.384.644l-.077.039-.239-.089a3.078 3.078 0 0 1-1.569-.997l-.073-.1.058-.107a.659.659 0 0 1 .73-.272.563.563 0 0 0 .289 0 3.36 3.36 0 0 0-1.504-.875c-.246-.072-.504-.13-.77-.188a6.825 6.825 0 0 1-1.665-.552 1.654 1.654 0 0 0-1.634 0 1.851 1.851 0 0 0-.881 1.576v.073c-.02.353-.02.706 0 1.059a1.478 1.478 0 0 1-.562 1.51c-.141.114-.27.243-.384.384-.085.092-.17.184-.262.269-.384.383-.43.667-.123 1.058.126.173.23.36.312.556.038.089.08.173.123.257.184.35.6.89 1.311.58a.807.807 0 0 0 .247-.223c.153-.22.386-.37.65-.422l.138-.023.062.127c.13.226.305.423.515.579.355.264.605.646.704 1.077.073.422.15.48.157.484.008.004.1 0 .385-.315.073-.073.158-.145.246-.218.177-.146.362-.3.362-.445 0-.146-.089-.246-.27-.384a.494.494 0 0 1-.123-.349.597.597 0 0 1 .131-.425c.173-.173.266-.319.254-.426-.011-.108-.223-.292-.427-.434-.061-.042-.123-.084-.18-.13-.708-.53-.854-.99-.574-1.833.04-.1.105-.189.189-.257.107-.104.146-.138.057-.326-.088-.188-.223-.468-.038-.61.185-.142.35-.138 2.108 1.37h.027l.046.06c.308.433.657.835 1.042 1.201.2-.215.523-.514.95-.25.2.171.285.44.22.695a.604.604 0 0 1-.735.383 1.126 1.126 0 0 0-.196 0 .324.324 0 0 1-.304-.095.739.739 0 0 1 .138.456c.047.012.094.02.142.023.185.023.493.061.581.383a.604.604 0 0 1-.019.491.666.666 0 0 1-.47.265c-.054.013-.108.03-.16.05.097.058.171.149.207.257.121.45.049.929-.2 1.323a.704.704 0 0 1-.542.291 7.08 7.08 0 0 0-1.343.23c-.873.211-1.78.43-2.727 0l-.084-.038a.501.501 0 0 1-.023.238.662.662 0 0 1-.585.383.608.608 0 0 0-.23.139l-.143.107a2.216 2.216 0 0 0-.488.495 1.65 1.65 0 0 1-1.208.767c-.712.03-.93-.468-1.108-.867a1.181 1.181 0 0 0-.454-.633c-.511-.276-1.4-.932-1.488-1.63-.089-.698-.416-.813-.877-.993l-.25-.104c-.215.553-.096 1.047.185 1.68l.107.246a.671.671 0 0 1 .385.034c.47.188.715.487.665.82-.053.217-.15.421-.284.6l-.062.095a1.625 1.625 0 0 0-.208.383c.108.031.22.048.331.05a.3.3 0 0 1 .3.207.383.383 0 0 1-.184.384l-.027.023c.834-.36 1.65-.326 2.592-.288h.573l-.192.288a2.378 2.378 0 0 1-1.693.978c-.23.044-.455.11-.673.196a.906.906 0 0 1-.219.06c-.161.035-.165.035-.165.158 0 .058 0 .154.061.192a.2.2 0 0 0 .177 0c.585-.219.77.215.892.472.124.257.174.356.35.337a.385.385 0 0 1 .335.111c.173.173.142.484.115.729v.15a2 2 0 0 0 0 .26c.086.369-.03.755-.303 1.017l-.054.05h-3.462c-.058.273-.07.554-.034.832.098.48-.007.98-.289 1.38.167.287.265.609.285.94l.027.176c0 .066 0 .096.33.073.107-.011.214-.011.32 0 .059.004.118.004.177 0a.644.644 0 0 1 .473.115c.5.464.919.269 1.45 0a2.05 2.05 0 0 1 1.207-.287c.274-.17.479-.429.581-.733-.05-1.074.362-1.687 1.335-1.994.207-.065.23-.196.23-.522a.766.766 0 0 1 .289-.74.77.77 0 0 1 .877.15c.215.145.358.23.527.18.17-.05.242-.084.238-.123a.662.662 0 0 1 .181-.529.79.79 0 0 1 .642-.138h.25a.975.975 0 0 1 .927.349c.38.43.854.769 1.385.99.17.088.335.172.5.264.139.07.284.127.435.169.48.153 1.211.383 1.042 1.27-.116.62-.67.713-1.12.766l-.157.027a.771.771 0 0 0 .23-.034.574.574 0 0 1 .57.214l.077.077c.139-.487.38-.94.708-1.327.197-.258.376-.53.534-.813-1.073-.03-1.777-.629-2.458-1.204a6.026 6.026 0 0 0-1.173-.844.553.553 0 0 1-.219-.767.569.569 0 0 1 .354-.314.698.698 0 0 1 .554.095c.238.15.473.303.708.457a12 12 0 0 0 2.526 1.369c.26.056.445.284.447.548.027.583.384.967.769 1.377.284.273.526.585.72.928.264-.767.184-1.062.053-1.185a.735.735 0 0 1-.304-.72.876.876 0 0 1 .658-.522l.115-.031a.918.918 0 0 1 .739 0c.21.141.35.366.384.617.152.553.467 1.048.904 1.42.312.272.685.325.77.253a1.862 1.862 0 0 1 1.492-.384c.257.022.516.008.769-.042l.238-.054v2.681c0 .521-.273.72-.677.92-.401.213-.849.325-1.303.326h-.839c-.738 0-1.5.023-2.25-.027-.523-.038-.708.085-.858.564a1.045 1.045 0 0 1-.63.63.42.42 0 0 1-.404-.112 1.002 1.002 0 0 0-.646-.222c-.26.004-.51-.09-.704-.261-.862-.936-1.993-1.032-3.077-.994h-.2v-1.875c-1.923-.084-4.158 0-6.196 1.105l-.181.103c-.385.226-.858.506-1.5-.08a.555.555 0 0 0-.385-.089c-.327.035-.626.2-.83.457-.247.299-.516.58-.804.84-.143.134-.285.268-.423.406l-.135.127c-.196.176-.292.276-.258.48.196 1.15-.584 1.568-1.288 1.813l-.112.038a1.205 1.205 0 0 0-.565.296c-.33.511-.689 1.004-1.073 1.476-.54.64-1.009 1.336-1.4 2.075l-.035.073c-.154.31-.169.384 0 .487 1.023.767.704 1.65.254 2.539-.511 1.009-.33 1.756.63 2.58l.147.124a6.75 6.75 0 0 1 1.37 1.419c.557.87 1.395 1.28 2.288 1.714l.119.061c.792.384 1.415.549 2.077.161.243-.146.525-.214.808-.195a9.821 9.821 0 0 0 4.615-.733.89.89 0 0 1 .77-.023.548.548 0 0 1 .26.449c.028.3.097.322.412.307a9.257 9.257 0 0 1 1.177 0 .916.916 0 0 1 .904.46.91.91 0 0 1-.077 1.009 1.098 1.098 0 0 0-.085.43c.007.302-.098.597-.296.828-.103.1-.16.24-.154.383.083.317.282.59.558.767.97.794 1.008 1.849 1.046 2.869l.023.506c.058.909-.453 1.362-.95 1.803l-.08.072c-.858.767-.662 1.661-.32 2.516.223.556.366 1.323.089 1.795a2.793 2.793 0 0 0-.296 1.442v.641c.065.599-.09 1.202-.439 1.695zm12.004-31.345a18.243 18.243 0 0 1 1.596 3.352c.296.767.608 1.553.985 2.301l.03.058v.065c-.119.583.22.901.731 1.388l.05.05c-.019-1.975-.861-3.536-1.68-5.047-.208-.383-.416-.767-.608-1.15-.242-.491-.542-.948-1.07-1.013l-.034-.004zm-11.088-2.34c1.065 0 2.134.189 3 1.128a.744.744 0 0 0 .461.135c.323.005.634.124.877.337h.039a.691.691 0 0 0 .353-.383 1.04 1.04 0 0 1 1.254-.837c.731.05 1.485.039 2.216.027h.842c.402 0 .799-.099 1.154-.287.404-.2.473-.242.461-.564-.019-.53 0-1.066 0-1.638v-.586c-.215.019-.43.019-.646 0a1.503 1.503 0 0 0-1.22.306c-.303.273-.9.08-1.276-.249a3.197 3.197 0 0 1-1.023-1.626.586.586 0 0 0-.196-.384c-.108-.065-.281 0-.431.027l-.138.039c-.135.03-.339.134-.385.245-.046.111.046.203.196.341.362.342.315 1.001-.146 2.08l-.23.536-.132-.571a2.795 2.795 0 0 0-.811-1.247 3.387 3.387 0 0 1-.77-1.07 5.75 5.75 0 0 1-.688 1.124 2.858 2.858 0 0 0-.67 1.33v.116l-.11.042a.524.524 0 0 1-.574-.192c-.111-.111-.142-.13-.2-.115a.77.77 0 0 1-.927-.314l-.111-.185.196-.088c.196-.078.402-.13.612-.157.457-.073.738-.138.803-.48.1-.525-.23-.655-.769-.832a2.543 2.543 0 0 1-.508-.199l-.488-.257a4.203 4.203 0 0 1-1.515-1.097c-.158-.203-.327-.21-.608-.2-.1.007-.2.007-.3 0-.07 0-.273-.022-.342.04a.383.383 0 0 0-.058.24c0 .35-.308.438-.52.5a.979.979 0 0 1-.845-.235c-.235-.157-.335-.21-.466-.134-.13.077-.1.173-.1.414 0 .242 0 .729-.5.886-.811.253-1.108.702-1.065 1.607a1.487 1.487 0 0 1-.539.91.616.616 0 0 1-.488.218 1.727 1.727 0 0 0-.98.26c-.143.066-.29.135-.44.192a.832.832 0 0 1 .597.192c.43.383.661.257 1.042.03l.192-.11c2.189-1.182 4.554-1.24 6.581-1.151h.185v1.845l.154.042zm-.354-6.883h-.054a.204.204 0 0 0-.115.111s-.085.192.042.253c.452.243.872.542 1.25.89.723.613 1.404 1.189 2.5 1.108h.092a1.5 1.5 0 0 1-.027-.234c0-.126-.03-.153-.188-.207a12.253 12.253 0 0 1-2.608-1.407l-.704-.453a.385.385 0 0 0-.188-.061zm-12.339-3.429a.59.59 0 0 0 .573-.057l.147-.089c.23-.175.517-.262.807-.245.074.02.153.01.22-.027.065-.065.05-.288.046-.383a3.128 3.128 0 0 1 0-.384v-.203a.536.536 0 0 1 .219-.487l.05-.03-.185-.024a2.134 2.134 0 0 0-1.888.64c-.15.142-.116.246.023.503a.716.716 0 0 1 .123.564.46.46 0 0 1-.135.222zm8.366-3.294v.119c-.114.373-.03.78.223 1.077.062.062.11.137.138.219a3.484 3.484 0 0 1 0-.491c.016-.48.008-.779-.361-.924zm3.504-3.805c-.143 0-.235.031-.258.092-.062.18.25.767 1.07 1.228.064.034.13.065.2.092.084.033.165.074.241.122a13.265 13.265 0 0 1-1.153-1.534h-.1zm1.726 1.335h.158c.25.02.296 0 .339-.115a.383.383 0 0 0-.066-.246c-.146-.088-.25-.042-.5.234a.323.323 0 0 1-.104.077c.019.02.041.035.066.046l.107.004zm13.439 12.295a.678.678 0 0 1-.496-.142.318.318 0 0 1-.085-.272c.177-1.15-.492-1.917-1.154-2.638-.157-.18-.311-.357-.454-.537-.703-.89-1.003-1.718-.18-2.857l.104-.146.15.092c.548.3.833.924.703 1.534-.057.487-.027.767.304.966.77.426 1.043 1.15 1.296 1.841.13.45.34.87.623 1.243.125.157.156.37.081.556a.511.511 0 0 1-.442.326c-.15.02-.3.031-.45.034zm-.192-.383c.198.03.4.03.6 0a.146.146 0 0 0 .142-.088.18.18 0 0 0 0-.165 4.168 4.168 0 0 1-.692-1.358c-.243-.66-.47-1.285-1.12-1.638-.65-.352-.546-.997-.503-1.35a1.034 1.034 0 0 0-.366-1.058c-.504.767-.423 1.361.277 2.244.135.176.289.349.439.521.65.729 1.403 1.584 1.223 2.876v.016zm-7.05-.169l-.12-.307c-.523-1.07-1.015-2.485-.184-3.961l.123-.223 1.23 1.227c.174-.118.216-.207.216-.226a.854.854 0 0 1-.262-.71.79.79 0 0 1 .458-.536.698.698 0 0 1 .704-.062.54.54 0 0 1 .215.533c-.027.518.173.833.593.932.27.076.511.231.692.445l.135.138c.344.298.546.727.553 1.182a.525.525 0 0 1-.219.41.979.979 0 0 1-1.269-.084.713.713 0 0 0-.704-.173c-.241.406-.66.676-1.13.729a1.41 1.41 0 0 0-.828.414l-.203.272zm-.1-3.835c-.423.909-.362 1.898.196 3.137.247-.17.528-.286.823-.341.365-.032.693-.234.884-.545a.458.458 0 0 1 .358-.222c.348-.044.698.068.954.307a.62.62 0 0 0 .788.034.16.16 0 0 0 .05-.119 1.264 1.264 0 0 0-.434-.87l-.15-.15a1.004 1.004 0 0 0-.504-.341 1.15 1.15 0 0 1-.885-1.323c0-.12-.019-.177-.038-.188-.02-.012-.15-.023-.315.069-.166.092-.247.176-.266.272a.613.613 0 0 0 .189.418.356.356 0 0 1 .073.291.937.937 0 0 1-.523.568l-.127.073-1.073-1.07zM56.108 70.696a.582.582 0 0 1-.22-.043 3.693 3.693 0 0 1-2.03-1.756c-.516-1.085-1.412-1.837-2.281-2.562-.342-.291-.7-.587-1.027-.905-1.45-1.388-2.088-2.658-2.135-4.245v-.246a1.955 1.955 0 0 0-.227-1.09c-.769-1.3-.834-2.534-.173-3.665a1.09 1.09 0 0 0 .035-.503v-.134c-.162-2.9.854-5.592 1.75-7.966a38.786 38.786 0 0 1 5.77-10.5 30.357 30.357 0 0 1 2.365-2.574c.584-.59 1.192-1.204 1.75-1.84.2-.227.427-.215.807-.112a.59.59 0 0 1 .635-.096h.05c.238-.87.888-1.445 1.538-2.001.347-.29.67-.606.97-.944a.543.543 0 0 1 .496-.176c.14.02.26.115.307.249a.616.616 0 0 1-.176.587.46.46 0 0 0 .176.241c.024 0 .07.031.17-.034a1.89 1.89 0 0 1 1.207-.223c.174.016.35.016.523 0a.91.91 0 0 1 .77.154c.126.153.18.353.146.548.058.028.119.051.18.07a.916.916 0 0 1 .747-.377c.296.039.45.323.584.572.056.133.138.253.243.353.476.343.845.814 1.065 1.357l.18.338c.16.266.19.592.078.882a.77.77 0 0 1-.696.36c-.062 0-.1.023-.112.054a.348.348 0 0 0 .115.295h.081c.096 0 .273 0 .312.161.038.162.284.384.496.549.211.165.435.314.385.548-.104.445-.527.614-.9.767-.172.061-.337.14-.493.234a.478.478 0 0 1-.504 0 .579.579 0 0 1-.269-.56.207.207 0 0 0-.03-.15.312.312 0 0 0-.243 0 .18.18 0 0 0-.146.135.122.122 0 0 0 0 .107c.423.337.555.923.315 1.408-.26.436-.688.748-1.184.863-.096.034-.185.065-.27.103-.488.2-.796-.195-1.023-.483a1.69 1.69 0 0 0-.323-.349.62.62 0 0 1-.184-.671c0-.111.03-.238 0-.284a.277.277 0 0 0-.177-.065h-.27a2.336 2.336 0 0 1-.942-.207l-.407-.207.473-.165a7.87 7.87 0 0 1 .534-.165 4.708 4.708 0 0 0 1.123-.43 7.195 7.195 0 0 0 1.262-.943c.13-.127.092-.234-.12-.575a1.275 1.275 0 0 1-.303-.84c.03-.234 0-.288-.023-.292-.023-.004-.043 0-.104 0a1.65 1.65 0 0 1-.473-.027c-.427-.069-.481-.034-.512.135-.067.297-.241.56-.488.74-.185.165-.3.276-.316.452-.046.545-.442.656-.734.737a.813.813 0 0 0-.385.176.346.346 0 0 1-.25.13.608.608 0 0 1-.384-.23 1.471 1.471 0 0 0-.112-.107l-.03.054a.65.65 0 0 0 .21.794c.185.157.174.468.162.74v.126a.521.521 0 0 1-.154.323l-.057.076-.2.319-.185-.357a.384.384 0 0 0-.184-.226.829.829 0 0 0-.535.107c-.173.073-.308.13-.439.065a.25.25 0 0 1-.13-.165c-.093-.36-.166-.383-.17-.383a.797.797 0 0 0-.234.1c-.11.061-.225.115-.342.16a6.455 6.455 0 0 0-2.058 1.377l-.423.384a.992.992 0 0 0-.281.694 1.214 1.214 0 0 1-.438.924.31.31 0 0 0 .115.196c.248.19.442.443.561.732.072.17.172.325.297.46.708.613.87 1.645.384 2.444a.448.448 0 0 0-.077.306c.027.077.143.13.243.177.046.02.091.043.134.069h.043c.034 0 .111-.111.153-.165.055-.077.117-.149.185-.215a.88.88 0 0 0 .235-.67 1.038 1.038 0 0 1 .346-.852c.177-.138.384-.261.557-.384a6.23 6.23 0 0 0 .624-.44l.088-.07a.767.767 0 0 0 .385-.537 2.803 2.803 0 0 0-.023-.426c-.05-.448-.124-1.112.707-1.315.06-.493.235-.964.512-1.377l.188-.353.081-.153.162.061c.605.278 1.187.603 1.742.97.77.53.477 1.105.258 1.57a2.84 2.84 0 0 0-.166.433c.654.13 1.154.187 1.539-.384.053-.073.192-.188.503-.111.239.057.608.25.647.525.027.268.027.538 0 .806-.064.388-.016.787.138 1.15.12.174.283.314.473.407.347.167.62.455.77.809.057.13.133.252.226.36.276.276.402.667.339 1.051v.085c-.066.322-.104.433-.685 1.085.123.108.251.209.385.303.48.357 1.027.767 1.084 1.637v.127l-.111.058c-.608.31-1.204.164-1.777 0a2.954 2.954 0 0 0-1.985 0l-.077.03v.03c.023.093.131.569-.107.707a5.67 5.67 0 0 1-1.154.525c-.16.042-.325.052-.489.03a.628.628 0 0 0-.523.112c-.06.077-.113.159-.157.245a.823.823 0 0 1-.631.384h-.077l-.062-.038c-.384-.334-.127-.683 0-.852a.633.633 0 0 0 .108-.169l-.035-.03c-.088-.062-.126-.058-.338.13-.137.142-.312.24-.504.284-.946.134-1.577.291-1.758 1.177a.383.383 0 0 1-.165.265.733.733 0 0 1-.538.065c-.293-.065-.508.061-.731.422-.089.146-.17.295-.25.449a3.04 3.04 0 0 1-1.235 1.43c.16.142.256.34.27.552 0 .384-.347.683-.627.92-.097.078-.185.162-.274.246-.27.283-.596.508-.957.66-.52.236-.893.71-1 1.27a.448.448 0 0 1-.1.191l-.027.03c.009.02.019.04.03.058.385.633.293 1.293.224 1.918-.058.37-.07.744-.035 1.116l.1.725-.446-.583-.142-.184c-.335-.426-.681-.863-.597-1.534.097-.767-.153-1.15-.865-1.274a.915.915 0 0 1-.496-.383 1.152 1.152 0 0 0-.262-.269.231.231 0 0 0-.203-.026s-.07.026-.093.13c-.011.054-.019.11-.023.165 0 .15-.034.334-.204.406-.169.073-.346-.026-.569-.195-.035-.027-.073-.054-.111-.088-.32-.257-.512-.384-.681-.242l-.193.134c-.338.227-.557.384-.515.671.047.437-.03.878-.22 1.274-.16.335-.23.707-.2 1.077.086.39.215.768.385 1.128.252.516.4 1.076.435 1.649.039.069.23.061.315.057h.104c.108 0 .289 0 .32-.038.03-.038 0-.034 0-.1a.93.93 0 0 1 .165-.859c.261-.253.692-.168 1.154-.08l.157.03v2.846a1.532 1.532 0 0 1 1.585 1.5c.037.236.095.468.173.694.08.222.137.452.17.686.088.882.384 1.15 1.25 1.074.538-.046.915.257 1.11.894l.136.445-.412-.219c-.115-.061-.196-.023-.385.096a.952.952 0 0 1-.507.192zm3.984-37.83a.142.142 0 0 0-.123.054c-.565.644-1.177 1.261-1.765 1.856a30.18 30.18 0 0 0-2.339 2.543 38.445 38.445 0 0 0-5.711 10.416c-.885 2.34-1.885 4.985-1.727 7.812v.126c.046.244.016.495-.085.721-.584 1.005-.527 2.11.17 3.28.217.39.316.835.284 1.28v.238c.046 1.477.646 2.685 2.016 3.981.319.307.673.602 1.011.886.896.767 1.827 1.534 2.377 2.685a3.328 3.328 0 0 0 1.827 1.564c.104.043.188 0 .361-.11.117-.082.247-.14.385-.173a.566.566 0 0 0-.596-.338c-1.058.088-1.539-.337-1.665-1.415a2.984 2.984 0 0 0-.15-.61 4.144 4.144 0 0 1-.189-.767 1.187 1.187 0 0 0-1.388-1.15h-.2v-2.938c-.289-.054-.566-.088-.666 0-.1.088-.092.257-.05.525a.49.49 0 0 1-.088.407.77.77 0 0 1-.593.172h-.115a.771.771 0 0 1-.588-.134.402.402 0 0 1-.123-.307 3.968 3.968 0 0 0-.408-1.5 5.74 5.74 0 0 1-.385-1.211c-.045-.438.03-.88.22-1.277.16-.33.23-.697.203-1.063-.088-.536.354-.832.677-1.05.062-.043.123-.08.177-.123.439-.33.904.05 1.154.253.035.025.068.052.1.08l.154.104v-.054c.003-.068.012-.136.027-.203a.545.545 0 0 1 .319-.403.617.617 0 0 1 .558.054c.137.097.257.216.354.353.092.115.196.242.273.257.915.172 1.296.729 1.173 1.699-.035.346.073.69.3.955 0-.203.034-.384.054-.598.069-.603.134-1.174-.174-1.692a.406.406 0 0 1 .031-.525l.027-.039c.14-.68.6-1.25 1.235-1.534.315-.132.598-.33.83-.579.097-.088.189-.176.289-.26.223-.185.496-.415.492-.618 0-.123-.104-.26-.3-.41l-.173-.134.154-.154.03-.034a.453.453 0 0 1 .162-.138c.577-.261.85-.768 1.154-1.304.085-.154.17-.311.262-.464a1.055 1.055 0 0 1 1.154-.595.359.359 0 0 0 .242 0c.258-1.235 1.273-1.38 2.092-1.5a.689.689 0 0 0 .304-.195c.18-.157.458-.384.808-.153a.426.426 0 0 1 .2.283.613.613 0 0 1-.177.457c-.123.165-.15.222-.116.272.089-.03.158-.115.258-.242.058-.078.122-.15.192-.218a.994.994 0 0 1 .804-.211.872.872 0 0 0 .35 0 5.137 5.137 0 0 0 1.02-.487.872.872 0 0 0 0-.253h-.05l-.154.061.065-.088h-.054c-.034 0-.042 0-.123.084a.723.723 0 0 1-.208.169 1.114 1.114 0 0 1-1.4-.207 1.008 1.008 0 0 1-.153-1.45c.115-.15.115-.15-.027-.33-.096-.119-.139-.126-.139-.126a.577.577 0 0 0-.119.1 1.75 1.75 0 0 1-.196.157.744.744 0 0 1-.358.076.83.83 0 0 0-.173 0 .683.683 0 0 1-.123.165l-.435.637.112-.472a.771.771 0 0 1-.362-.046.384.384 0 0 1-.265-.322.292.292 0 0 1 .192-.276c.107-.039.218-.066.331-.08.062-.008.124-.02.185-.035l.123-.023c.273-.687.861-.767 1.404-.767h.884c1.066.034 2.07.061 3.077-.407l.316-.15-.047.35c-.103.767-.542 1.242-1.053 1.787l-.385.414a3.884 3.884 0 0 1 1.62.15c.444.169.932.192 1.391.065-.088-.614-.492-.909-.919-1.223-.201-.142-.39-.3-.565-.472l-.12-.13.116-.131c.654-.729.665-.767.72-1.043l.018-.088a.85.85 0 0 0-.261-.698 1.733 1.733 0 0 1-.285-.464 1.244 1.244 0 0 0-.607-.614 1.567 1.567 0 0 1-.589-.548 2.39 2.39 0 0 1-.18-1.381 3.824 3.824 0 0 0 0-.729.693.693 0 0 0-.466-.218c-.57.767-1.308.625-2.023.479l-.223-.042v-.165c.027-.27.11-.53.242-.767.23-.495.33-.767-.13-1.093-.486-.314-.988-.6-1.504-.86l-.116.208c-.277.396-.438.86-.465 1.342v.169l-.166.027c-.607.092-.607.383-.546.924.025.165.033.332.023.499-.04.33-.226.626-.507.805l-.085.065c-.21.171-.43.327-.662.468-.18.115-.384.234-.53.384-.146.15-.177.299-.196.575.009.35-.126.688-.374.936a.906.906 0 0 0-.134.157c-.123.165-.354.464-.712.238a.643.643 0 0 0-.088-.043.746.746 0 0 1-.442-.383.765.765 0 0 1 .096-.61 1.531 1.531 0 0 0-.316-1.979 1.883 1.883 0 0 1-.384-.571c-.09-.23-.24-.43-.435-.583a.686.686 0 0 1-.285-.545.295.295 0 0 1 .127-.264c.231-.146.27-.353.316-.687.007-.353.155-.688.411-.932l.42-.364a6.9 6.9 0 0 1 2.18-1.488c.101-.04.2-.087.296-.138a.651.651 0 0 1 .57-.115c.154.069.261.226.354.533l.08-.035c.252-.144.55-.182.831-.107a.627.627 0 0 1 .208.142v-.073a1.25 1.25 0 0 0-.027-.433 1.03 1.03 0 0 1-.304-1.262.457.457 0 0 1 .312-.269c.192-.03.334.115.45.23l.103.1c.157-.142.35-.24.558-.28.3-.08.435-.126.454-.383a1.07 1.07 0 0 1 .442-.706.924.924 0 0 0 .385-.521c.1-.583.63-.499.946-.45.119.026.24.035.362.028a.482.482 0 0 1 .43.119.73.73 0 0 1 .131.613c.013.214.094.418.23.583.185.295.435.694.062 1.055-.41.377-.862.708-1.346.985a4.777 4.777 0 0 1-1.065.434h.17c.095 0 .191 0 .288.023a.6.6 0 0 1 .434.207c.106.17.137.377.085.571-.027.188-.027.273.023.307.156.123.293.268.408.43.25.322.384.445.569.36l.284-.107c.398-.084.747-.32.97-.66a.766.766 0 0 0-.22-.962.486.486 0 0 1-.13-.491.553.553 0 0 1 .434-.415.636.636 0 0 1 .573.096c.128.119.19.292.166.464a.203.203 0 0 0 .073.204c.03.017.066.017.096 0 .179-.112.37-.204.57-.273.36-.145.591-.249.657-.464a1.322 1.322 0 0 0-.223-.18 1.632 1.632 0 0 1-.612-.625.432.432 0 0 1-.346-.07.727.727 0 0 1-.23-.728.473.473 0 0 1 .445-.299c.139 0 .32-.046.385-.165a.62.62 0 0 0-.077-.51l-.177-.364a2.816 2.816 0 0 0-.927-1.212c-.169-.13-.301-.3-.384-.495-.093-.169-.196-.36-.296-.383-.043 0-.177 0-.458.31-.046.05-.139.146-.546-.038-.096-.046-.266-.123-.246-.284a.44.44 0 0 0-.054-.322c-.062-.058-.204-.077-.439-.046-.198.02-.398.02-.596 0a1.542 1.542 0 0 0-.977.161.536.536 0 0 1-.746-.104c-.092-.103-.296-.444-.154-.61.142-.164.166-.256.162-.275a.177.177 0 0 0-.15.046c-.31.354-.647.683-1.008.985-.627.552-1.18 1.04-1.392 1.764.153.034.27.157.296.311a.28.28 0 0 1-.192.276.655.655 0 0 1 .169.449.522.522 0 0 1-.262.383l-.188.142-.1-.21c-.062-.12-.17-.154-.358-.208a.87.87 0 0 1-.535-.307.593.593 0 0 1-.057-.421.99.99 0 0 0-.239-.058zm4.12 13.88h.026c.17.03.318.128.412.272.204.257.315.433.03.801a.64.64 0 0 0 .116.913c.244.275.653.33.962.13a.522.522 0 0 0 .084-.08.481.481 0 0 1 .516-.196h.054l.138.039.096-.13c.238-.319.495-.622.77-.91.378-.343.678-.764.876-1.235a7.47 7.47 0 0 1-2.9.3h-.869c-.52 0-.835.076-1.011.429.06 0 .119-.007.176-.023a1.36 1.36 0 0 0 .127-.107.566.566 0 0 1 .397-.204zm-3.508-13.723a.317.317 0 0 0 0 .096c.054.077.158.107.32.154.135.031.265.086.384.16a1.29 1.29 0 0 0-.235-.268c-.173-.05-.33-.1-.47-.142zm3.208 1.373a.347.347 0 0 1-.108 0 .242.242 0 0 1-.177-.169 2.679 2.679 0 0 1 .438-1.668c.185-.19.336-.41.447-.652-.653.1-1.168.605-1.281 1.254l-.089.353-.242-.272c-.058-.062-.13-.127-.196-.188-.192-.169-.385-.33-.35-.54a1.625 1.625 0 0 1 1.5-1.477c.208 0 .384.145.55.326.065.065.13.134.204.195a1.308 1.308 0 0 0 0-.172.483.483 0 0 1 .154-.357.837.837 0 0 1 .646-.096c.174.025.352.025.527 0l.384-.069-.177.345c-.119.234-.242.43-.361.625a2.298 2.298 0 0 0-.446 1.043.187.187 0 0 0 0 .047.42.42 0 0 1-.02.199c-.223.598-.903 1.273-1.403 1.273zm1.242-3.106a.24.24 0 0 0-.123.019.16.16 0 0 0 0 .08 2.11 2.11 0 0 1-.65 1.408 2.55 2.55 0 0 0-.385 1.204c.447-.206.798-.573.985-1.028v-.026a1.04 1.04 0 0 1 0-.108 2.68 2.68 0 0 1 .484-1.212c.062-.096.123-.195.181-.295l-.265-.02a2.314 2.314 0 0 0-.227-.022zm-1.27.119a1.229 1.229 0 0 0-1.153 1.15c.066.074.136.143.211.207.187-.54.613-.964 1.154-1.15a.903.903 0 0 0-.22-.207h.009z"/>
                <path d="M72.973 94.247a.793.793 0 0 1-.735-.383c-.384-.637-1.019-.951-1.68-1.289-.52-.231-1-.539-1.427-.913a7.227 7.227 0 0 0-.677-.548 5.698 5.698 0 0 1-.992-.898c-.204-.249-.42-.494-.635-.736a13.263 13.263 0 0 1-1.435-1.84c-.13-.212-.257-.426-.384-.641-.375-.66-.784-1.3-1.227-1.918a3.844 3.844 0 0 0-1.15-.913l-.1-.06c-.239-.15-.489-.289-.739-.43-1.077-.606-2.192-1.232-2.738-2.558a2.516 2.516 0 0 0-.996-.994 4.631 4.631 0 0 1-1.47-1.84 6.517 6.517 0 0 0-.723-1.151.999.999 0 0 1-.046-1.1 2.51 2.51 0 0 0 0-2.44c-.384-.848.2-2.132 1.004-2.803.08-.066.08-.127.065-.296a1.055 1.055 0 0 1 0-.31l.058-.257.55.322c1.254.728 2.439 1.419 3.908 1.311.371-.029.733.123.973.407.552.56 1.16 1.063 1.811 1.503l.254.18c.516.384.923.66 1.6.63.893-.047 1.462.517 2.004 1.058.18.187.37.364.57.53.452.388.676.978.596 1.568a.18.18 0 0 1 .026.046.138.138 0 0 1 0 .034 12.18 12.18 0 0 1 3.404.967 8.8 8.8 0 0 0 1.796.502c.745.117 1.47.335 2.154.648.538.267.93.757 1.073 1.339a1.53 1.53 0 0 1-.273 1.308 2.746 2.746 0 0 1-.273.283c-.05.046-.1.092-.146.142-.623.652-.623.652-.465 1.795.08.711-.068 1.43-.423 2.052-.139.268-.47.901-1.223.767-.361-.028-.72.077-1.008.295-.13.073-.266.146-.412.215.67.867.296 1.66-.034 2.366a2.81 2.81 0 0 0-.385 1.254c0 .407-.32.453-.5.48a.987.987 0 0 0-.138.027c.144.133.282.273.411.421.288.39.692.678 1.154.825.246.054.238.472.227.548-.03.157-.11.301-.227.41l-.065.047h-.104a1.581 1.581 0 0 0-.439.019 2.283 2.283 0 0 1-.369.02zM57.277 70.584a.597.597 0 0 1-.212.522c-.677.564-1.207 1.687-.9 2.347a2.858 2.858 0 0 1 0 2.78.635.635 0 0 0 0 .676c.297.376.554.78.77 1.208a4.29 4.29 0 0 0 1.342 1.706c.491.26.893.661 1.154 1.15.496 1.205 1.504 1.773 2.573 2.37.254.143.508.285.77.438l.1.061c.471.25.891.588 1.238.994.448.629.864 1.28 1.246 1.952l.384.64c.413.634.88 1.23 1.396 1.784.221.255.436.505.647.747.28.312.596.588.942.825.23.185.45.384.658.594.404.349.86.633 1.35.844.677.345 1.377.698 1.83 1.427.15.245.385.23.731.18.149-.023.3-.034.45-.03a.414.414 0 0 0 .054-.123.42.42 0 0 0 0-.134 2.692 2.692 0 0 1-1.273-.92 4.225 4.225 0 0 0-.554-.534l-.13-.1.08-.145a.674.674 0 0 1 .558-.307.524.524 0 0 0 .169-.039.138.138 0 0 0 0-.046c.024-.502.167-.992.415-1.43.35-.744.654-1.388-.073-2.152l-.207-.214.284-.1a3.97 3.97 0 0 0 .604-.288 1.823 1.823 0 0 1 1.265-.337c.385.073.604-.157.816-.556.32-.553.454-1.192.384-1.826-.173-1.277-.15-1.354.562-2.098.062-.069.12-.119.173-.172.083-.07.16-.149.227-.234.217-.28.294-.643.208-.986a1.677 1.677 0 0 0-.877-1.085 7.813 7.813 0 0 0-2.054-.614 9.336 9.336 0 0 1-1.873-.525 11.864 11.864 0 0 0-3.292-.94.643.643 0 0 1-.197.487.281.281 0 0 1-.288.035 1.198 1.198 0 0 1-.6-.599.295.295 0 0 1 .027-.276.64.64 0 0 1 .504-.21h.169a1.287 1.287 0 0 0-.454-1.151 6.961 6.961 0 0 1-.577-.537c-.508-.502-.988-.974-1.715-.947-.812.05-1.312-.319-1.843-.702l-.25-.177a12.393 12.393 0 0 1-1.869-1.534.77.77 0 0 0-.665-.291c-1.596.115-2.885-.637-4.13-1.365l-.047-.043zm11.22 7.16c.071.117.17.214.288.284a.119.119 0 0 0 0-.042v-.272h-.158a.386.386 0 0 0-.13.03zM76.823 39.413a.97.97 0 0 1-.596-.261 4.001 4.001 0 0 1-.239-.207c-.438-.384-.669-.556-1.1-.17a.385.385 0 0 1-.607 0 .357.357 0 0 0-.058-.049 4.065 4.065 0 0 1-1.538-2.968c-.039-.384-.062-.648-.312-.852l-.165-.134.15-.15.25-.253c.188-.191.384-.383.573-.563.342-.307.688-.606 1.038-.905l.423-.365c.431-.54.427-.564.385-1L75 31.281a1.887 1.887 0 0 1 .385-1.641c.107-.127.442-.503.407-.625-.034-.123-.569-.307-.827-.384a.461.461 0 0 1-.242-.222l-.046-.066-.165-.2.384-.16c-.658-.18-.77-.088-1.538.41a4.693 4.693 0 0 1-.804.414 2.57 2.57 0 0 0-1.154.767.662.662 0 0 1-.53.28.516.516 0 0 1-.42-.249c-.108-.165-.242-.172-.485-.169a.875.875 0 0 1-.688-.199l-.154-.15.17-.134c.434-.336.939-.569 1.476-.682a.47.47 0 0 1-.446-.591v-.1l.658-.326c.446-.226.896-.449 1.346-.667.273-.134.454-.223.646-.154.192.07.258.188.385.46a1.459 1.459 0 0 1 1.784-.92c.227.042.646.123.789 0 .442-.33.696-.356 1.284-.15.903.335 1.9.316 2.789-.053.305-.128.634-.191.965-.184h.208c.389-.03.78.01 1.154.119.196.069.173.284.15.452a.983.983 0 0 0 .054.583c.084.15.184.296.28.441a2.68 2.68 0 0 1 .623 1.83c0 .157.335.456.593.675.174.126.34.262.5.406l.065.073v.092c-.161.86-.73 1.327-1.3 1.73-.24.164-.491.314-.75.448-.12.066-.238.13-.354.2-.115.069-.207.23-.28.452-.057.24-.192.456-.385.61-.072.061-.137.13-.192.207a.853.853 0 0 1-.431.345c-1.239.296-1.777 1.262-2.35 2.302l-.085.153c-.054.096-.111.184-.169.272-.188.21-.282.487-.262.767a1.09 1.09 0 0 1-.246.813l-.092.146c-.238.403-.458.683-.77.736a.49.49 0 0 1-.107-.026zm-1.492-1.243c.354.046.678.221.911.49.073.066.146.131.223.193.17.134.297.191.385.172.088-.019.292-.195.504-.552l.1-.161a.743.743 0 0 0 .192-.545 1.397 1.397 0 0 1 .316-1.035c.053-.08.107-.161.157-.25l.085-.15c.584-1.05 1.192-2.135 2.596-2.473.062 0 .146-.119.22-.21.077-.102.166-.193.265-.273a.797.797 0 0 0 .234-.422c.056-.273.218-.513.45-.667l.385-.203c.245-.128.483-.27.711-.426.6-.422.981-.794 1.123-1.388-.103-.1-.226-.204-.346-.307-.384-.334-.769-.648-.727-1.001.066-.652-.238-1.105-.557-1.584-.104-.153-.208-.303-.296-.464a1.32 1.32 0 0 1-.1-.817.47.47 0 0 0 0-.077 3.51 3.51 0 0 0-.931-.065h-.212a1.928 1.928 0 0 0-.811.153 4.242 4.242 0 0 1-3.077.062c-.47-.165-.593-.154-.927.1-.277.203-.746.115-1.089.053-.811-.153-1.273.188-1.496 1.105l-.088.383c.677-.433.88-.383 1.973-.057l.511.157-.88.384c.569.184.93.33 1.011.628.08.3-.115.553-.492.978-.377.426-.342.86-.292 1.35l.023.25c.061.548.038.655-.473 1.296l-.024.023-.438.383c-.346.296-.692.595-1.027.898-.196.176-.385.36-.561.548l-.116.12c.198.277.303.61.3.95a3.682 3.682 0 0 0 1.404 2.712c.032.026.063.054.092.084l.035.035.046-.039c.182-.201.436-.324.708-.341zm-5.262-9.147a.77.77 0 0 1 .727.35.142.142 0 0 0 .108.068.308.308 0 0 0 .211-.115c.343-.406.792-.71 1.297-.878.259-.104.507-.232.742-.384l.3-.203-.189-.383a2.395 2.395 0 0 0-.384-.698 1.19 1.19 0 0 0-.346.138l-1.347.663-.465.211c0 .05.054.054.2.073.146.02.496.069.562.422l.034.188-.188.038a4.459 4.459 0 0 0-1.493.503h.231v.007zm7.127-1.384l-.108-.28c0-.042-.042-.088-.065-.13a.811.811 0 0 1-.127-.426.483.483 0 0 1 .18-.384.74.74 0 0 1 .593-.084c.143.027.208.16.25.25l.027.049.08.126-.83.879zm.227-.932a.177.177 0 0 0-.108.023.172.172 0 0 0-.034.1.348.348 0 0 0 .038.126l.231-.238-.127-.011zM110.277 82.274l.285-.533c.142-.269.276-.53.407-.79.793-1.534 1.539-2.98 2.912-4.077l.311-.25v.729a3.27 3.27 0 0 0 0 .522.56.56 0 0 1-.227.514.899.899 0 0 0-.084.088c-.223.3-.42.618-.627.959-.57.932-1.154 1.917-2.439 2.546l-.538.292zm3.523-4.829c-1.108 1.005-1.75 2.256-2.488 3.682l-.093.184a6.459 6.459 0 0 0 1.712-2.06c.198-.34.414-.67.646-.989.04-.05.083-.095.13-.138.097-.088.116-.115.108-.188a3.4 3.4 0 0 1-.015-.49zM57.192 64.322a.87.87 0 0 1-.769-.415 2.614 2.614 0 0 0-.915-.732 3.234 3.234 0 0 1-.939-.717c-.169.215-.334.299-.492.253-.235-.07-.262-.384-.273-.472a.57.57 0 0 1 .111-.43.717.717 0 0 1 .535-.195c.487.002.96.17 1.338.476.253.182.54.312.843.383l.154.027v.157c0 .31.18.418.511.595.298.125.548.341.716.617l.096.192-.2.077a2.113 2.113 0 0 1-.716.184zm-2.619-2.301a.385.385 0 0 1 .285.176c.237.268.524.487.846.644.408.201.764.492 1.042.852.166.249.385.303.796.184a1.766 1.766 0 0 0-.415-.272 1.117 1.117 0 0 1-.704-.768 3.08 3.08 0 0 1-.838-.421 1.872 1.872 0 0 0-1.108-.418c-.054 0-.223 0-.265.065a.218.218 0 0 0 0 .146v.088a.491.491 0 0 0 .069-.077.385.385 0 0 1 .292-.2zM90.362 27.132a3.803 3.803 0 0 1-1.885-.64l-.323-.188.342-.153c.139-.062.27-.127.385-.192.29-.164.602-.287.927-.364l.104-.02c.33-.069.884-.184 1.153.3.093.236.116.494.066.744a1.962 1.962 0 0 0-.02.249v.157l-.142.038c-.198.05-.403.073-.607.07zM89 26.34a2.537 2.537 0 0 0 1.746.383v-.138a.998.998 0 0 0-.023-.522c-.111-.214-.385-.18-.72-.107l-.11.023a3.413 3.413 0 0 0-.828.33l-.065.03z"/>
                <path d="M69.104 30.588a2.902 2.902 0 0 1-1.235-.384 7.317 7.317 0 0 0-.357-.168l-.335-.146.308-.192c.673-.426 1.038-.64 1.257-.418.158.161.335.161.627.146a1.62 1.62 0 0 1 .896.15l.193.103-.127.176a1.49 1.49 0 0 1-1.227.733zm-1.116-.767l.05.023c.662.322 1.239.606 1.82-.027a1.929 1.929 0 0 0-.473-.015 1.098 1.098 0 0 1-.893-.23 2.387 2.387 0 0 0-.504.257v-.008zM60.965 65.376h-3.184l.327-.326c.477-.479.857-.767 1.28-.767.42 0 .793.3 1.258.767l.32.326zm-2.234-.383h1.304a1.051 1.051 0 0 0-.643-.334c-.254.026-.49.145-.661.334zM69.704 28.256l-.042-.023-.093-.034a.57.57 0 0 1-.296-.196.65.65 0 0 1-.061-.518.718.718 0 0 1 .33-.356l.085-.035.092.046c.035.02.05.027.2-.111a.477.477 0 0 1 .77-.05.49.49 0 0 1 .1.334.444.444 0 0 1-.108.303 1.459 1.459 0 0 0-.162.18 1 1 0 0 1-.769.46h-.046zm-.058-.736a.384.384 0 0 0-.07.084.275.275 0 0 0 0 .188l.112.046.077.03c.166-.022.273-.137.423-.317a2.07 2.07 0 0 1 .193-.215v-.111a.142.142 0 0 0-.05-.027c-.027 0-.104.073-.143.11a.59.59 0 0 1-.542.212zM99.827 50.327l-.104-.28a4.708 4.708 0 0 0-.088-.21.383.383 0 0 1-.047-.258.727.727 0 0 0 0-.237.712.712 0 0 1 .089-.553.632.632 0 0 1 .454-.203.566.566 0 0 1 .496.207c.3.487-.023.767-.239.978l-.142.142-.108.111-.311.303zm.142-.69c.046-.05.1-.096.154-.146.227-.207.296-.291.17-.498a.35.35 0 0 0-.131-.027c-.139 0-.181.05-.193.065a.718.718 0 0 0 0 .265c.02.118.02.238 0 .356v-.015zM66.308 29.414l-.181-.065c-.204-.069-.354-.119-.312-.299a.972.972 0 0 1 .835-.79.724.724 0 0 1 .47.165l.068.073v.103c-.087.399-.4.71-.8.798l-.08.015zm-.066-.43l.07.024a.673.673 0 0 0 .426-.357h-.053a.554.554 0 0 0-.435.334h-.008zM74.67 32.87a.56.56 0 0 1-.15-.023h-.07a.605.605 0 0 1-.47-.146.632.632 0 0 1-.15-.495c.001-.161.073-.314.197-.418a.64.64 0 0 1 .546-.08c.412.088.412.44.415.648v.107a.383.383 0 0 1-.115.338.277.277 0 0 1-.204.069zm-.324-.794a.197.197 0 0 0-.108.023.195.195 0 0 0-.046.134.298.298 0 0 0 .039.203c.038.027.084.04.13.035a.359.359 0 0 1 .22 0v-.1c0-.245-.023-.257-.112-.276a.513.513 0 0 0-.123-.019zM108.423 51.65a1.399 1.399 0 0 1-.73-.234l-.29-.176.3-.157a1.303 1.303 0 0 1 1.447.023l.285.176-.293.157c-.218.129-.465.201-.719.211zm-.07-.383h.15a.98.98 0 0 0-.15-.004v.004zM74.7 94.612a.423.423 0 0 1-.42-.261.383.383 0 0 1 .07-.342.296.296 0 0 1 .242-.165h.096c.235-.069.485.05.577.277l.039.092-.054.084a.31.31 0 0 0-.023.05c-.046.1-.112.238-.265.25h-.085c-.059.009-.118.014-.177.015zm-.035-.384a.725.725 0 0 0 .158 0h.039a.498.498 0 0 0-.12 0h-.08.003z"/>
                <path d="M68.727 29.407a.548.548 0 0 1-.173-.031c-.158-.058-.146-.219-.135-.383v-.142a.522.522 0 0 1 .385-.591l.2-.065.05.203c.01.047.022.093.038.138.05.132.072.273.066.414a.533.533 0 0 1-.231.384.466.466 0 0 1-.2.073zM91.158 27.443a.235.235 0 0 1-.096-.023.657.657 0 0 1-.304-.257.314.314 0 0 1 .027-.383.32.32 0 0 1 .384-.031c.087.05.158.124.208.21.012.022.026.04.042.058l.108.135-.162.165a.312.312 0 0 1-.207.126zM114.058 77.365a.285.285 0 0 1-.196-.077.321.321 0 0 1-.027-.383.538.538 0 0 1 .207-.207l.062-.043.134-.107.162.161c.073.062.188.165.112.307a.649.649 0 0 1-.258.307.436.436 0 0 1-.196.042z"/>
                <path d="M84 97.668c-20.71 0-37.5-16.741-37.5-37.392 0-20.652 16.79-37.393 37.5-37.393s37.5 16.741 37.5 37.393c-.023 20.641-16.799 37.369-37.5 37.392zm0-72.867c-19.649 0-35.577 15.882-35.577 35.475C48.423 79.868 64.351 95.75 84 95.75c19.649 0 35.577-15.883 35.577-35.475C119.556 40.692 103.64 24.822 84 24.8z"/>
            </g>
            <g fill="#000">
                <path d="M62.02 14.14l4.807-1.918.635 1.599-2.447.978 1.077 2.638 1.862-.744.661 1.642-1.861.744 1.28 3.187 2.47-.994.638 1.592-4.834 1.94zM71.927 16.287l-3.27-4.694L71 11.056l1.923 2.746.308-3.268 2.065-.476-.627 6.275L78.1 21.21l-2.33.533-2.155-3.022-.423 3.624-2.05.46zM79 20.383c-.564-.609-.88-1.537-.95-2.785l-.23-4.264c-.066-1.247.145-2.198.645-2.854.5-.655 1.362-1.02 2.6-1.096 1.239-.077 2.162.199 2.731.805.57.606.889 1.534.954 2.761l.23 4.265c.07 1.248-.145 2.204-.645 2.869-.504.667-1.377 1.035-2.627 1.1-1.25.065-2.146-.192-2.708-.801zm3.304-1.385c.109-.319.148-.658.115-.993l-.304-5.527a2.33 2.33 0 0 0-.223-.981.712.712 0 0 0-.73-.319.685.685 0 0 0-.662.384c-.11.319-.149.658-.115.993l.3 5.527c.003.336.074.668.207.978a.681.681 0 0 0 .716.322.708.708 0 0 0 .692-.384h.004zM88.277 11.516l-1.727-.184.204-1.876 5.984.64-.203 1.88-1.712-.184-1.03 9.55-2.547-.273zM94.796 10.534l2.48.571-2.595 11.2-2.481-.572zM96.92 22.062c-.257-.805-.162-1.784.284-2.937l1.492-3.87c.457-1.181 1.045-1.981 1.766-2.4.72-.42 1.669-.403 2.846.05 1.128.429 1.821 1.004 2.08 1.725.255.847.19 1.758-.18 2.562l-.358.924-2.308-.89.412-1.073a2.8 2.8 0 0 0 .234-1.005c0-.253-.173-.445-.507-.576a.702.702 0 0 0-.8.096c-.238.266-.42.576-.535.913l-1.961 5.047c-.148.325-.219.68-.208 1.036a.699.699 0 0 0 .527.59.64.64 0 0 0 .77-.096 2.76 2.76 0 0 0 .514-.92l.424-1.116 2.307.89-.357.928a3.837 3.837 0 0 1-1.612 2.078c-.685.384-1.592.357-2.715-.073-1.123-.43-1.862-1.081-2.116-1.883z"/>
            </g>
            <g fill="#64BDF4">
                <path d="M106.662 27.32a.385.385 0 0 1-.216-.065l-.634-.422a.383.383 0 0 1 .419-.64l.646.449a.383.383 0 0 1 .104.533.385.385 0 0 1-.32.145zM84 100.928h-1.07a.384.384 0 1 1 .024-.767h1.538a.384.384 0 1 1 0 .767H84zm2.404-.073a.384.384 0 1 1-.023-.767c.507-.03 1.019-.069 1.519-.119a.387.387 0 0 1 .39.542.386.386 0 0 1-.313.225c-.512.05-1.035.088-1.539.12h-.034zm-5.385-.034h-.03a38.143 38.143 0 0 1-1.539-.142.384.384 0 0 1 .085-.764c.5.058 1.007.104 1.538.142a.384.384 0 1 1-.027.767l-.027-.003zm8.823-.315a.385.385 0 1 1-.054-.767 47.256 47.256 0 0 0 1.504-.25.39.39 0 1 1 .142.767c-.507.093-1.022.177-1.538.25h-.054zm-12.261-.084h-.062a49.484 49.484 0 0 1-1.538-.276.39.39 0 1 1 .15-.767c.492.1.996.187 1.5.268a.386.386 0 0 1 .29.6.386.386 0 0 1-.348.167l.008.008zm15.665-.556a.387.387 0 1 1-.088-.767c.496-.115.992-.242 1.477-.384a.384.384 0 1 1 .204.74c-.493.134-1 .265-1.504.384l-.089.027zm-19.058-.135a.413.413 0 0 1-.096 0 50.85 50.85 0 0 1-1.5-.402.384.384 0 1 1 .216-.737c.484.138.98.273 1.473.384a.387.387 0 1 1-.093.767v-.012zm22.393-.797a.384.384 0 0 1-.123-.748c.484-.157.969-.326 1.442-.503a.384.384 0 1 1 .265.721c-.48.177-.973.35-1.465.51a.455.455 0 0 1-.115.02h-.004zm-25.712-.192a.359.359 0 0 1-.123-.02c-.488-.164-.98-.344-1.465-.532a.384.384 0 1 1 .28-.714c.474.18.958.357 1.435.522a.383.383 0 0 1-.127.744zm28.95-1.028a.384.384 0 0 1-.15-.736c.462-.2.927-.407 1.385-.622a.384.384 0 1 1 .33.694c-.469.22-.942.43-1.415.63a.355.355 0 0 1-.15.042v-.008zm-32.177-.234a.386.386 0 0 1-.157-.034 42.48 42.48 0 0 1-1.412-.656.384.384 0 1 1 .339-.69c.457.222.923.44 1.384.644a.383.383 0 0 1-.154.736zm35.293-1.254a.384.384 0 0 1-.181-.72c.45-.239.896-.488 1.33-.737a.386.386 0 0 1 .611.322.383.383 0 0 1-.226.337c-.446.261-.9.514-1.357.767a.386.386 0 0 1-.177.039v-.008zm-38.4-.284a.362.362 0 0 1-.185-.05 64.97 64.97 0 0 1-1.35-.767.384.384 0 1 1 .385-.655c.434.26.877.514 1.323.767a.384.384 0 0 1 .154.521.385.385 0 0 1-.327.192v-.008zm41.388-1.457a.384.384 0 0 1-.208-.706c.423-.272.847-.556 1.262-.847a.385.385 0 0 1 .442.629 39.66 39.66 0 0 1-1.288.863.385.385 0 0 1-.208.06zm-44.35-.345a.362.362 0 0 1-.211-.065 39.98 39.98 0 0 1-1.277-.886.383.383 0 0 1-.039-.502.385.385 0 0 1 .492-.108c.412.299.835.59 1.254.87a.383.383 0 0 1 .104.534.385.385 0 0 1-.323.157zm47.162-1.66a.383.383 0 0 1-.235-.686c.385-.312.8-.63 1.185-.956a.387.387 0 0 1 .544.048.384.384 0 0 1-.048.542c-.385.33-.8.656-1.208.97a.385.385 0 0 1-.238.093v-.012zm-49.958-.384a.385.385 0 0 1-.239-.085c-.384-.322-.803-.656-1.196-.993a.383.383 0 0 1 .103-.697.385.385 0 0 1 .401.133c.385.33.77.656 1.154.974a.383.383 0 0 1-.242.683l.019-.015zm52.6-1.849a.385.385 0 0 1-.28-.126.383.383 0 0 1 .018-.541c.385-.342.743-.694 1.104-1.051a.385.385 0 0 1 .656.272c0 .103-.04.2-.113.273-.385.364-.747.724-1.124 1.07a.385.385 0 0 1-.261.118v-.015zm-55.208-.422a.385.385 0 0 1-.265-.107 26.878 26.878 0 0 1-1.104-1.09.383.383 0 0 1 .17-.66.385.385 0 0 1 .38.128c.354.36.72.717 1.085 1.066a.383.383 0 0 1 0 .544.385.385 0 0 1-.266.135v-.016zm57.65-2.025a.385.385 0 0 1-.257-.103.383.383 0 0 1-.027-.541c.342-.383.68-.767 1.007-1.15a.387.387 0 0 1 .545-.045c.162.138.182.381.044.543-.335.384-.681.767-1.027 1.15a.385.385 0 0 1-.285.162V87.8zm-60.054-.46a.385.385 0 0 1-.288-.13 34.36 34.36 0 0 1-1.008-1.178.383.383 0 0 1 .054-.54.386.386 0 0 1 .542.053c.323.384.654.767.989 1.15.14.16.124.402-.035.542a.385.385 0 0 1-.254.118v-.015zm62.281-2.186a.385.385 0 0 1-.308-.617c.308-.384.616-.813.908-1.224a.385.385 0 1 1 .627.441c-.3.422-.611.844-.923 1.25a.385.385 0 0 1-.304.165v-.015zm-64.461-.49a.385.385 0 0 1-.308-.154 41.81 41.81 0 0 1-.904-1.262.383.383 0 0 1 .1-.533.385.385 0 0 1 .535.1c.284.418.584.832.884 1.235a.383.383 0 0 1-.08.536.385.385 0 0 1-.227.093v-.016zm66.45-2.34a.384.384 0 0 1-.323-.587c.273-.426.542-.863.8-1.3a.385.385 0 1 1 .661.383c-.261.441-.535.886-.811 1.32a.385.385 0 0 1-.327.2v-.016zm-68.397-.499a.385.385 0 0 1-.326-.18c-.27-.437-.539-.886-.793-1.33a.387.387 0 0 1 .67-.384c.25.437.511.878.769 1.307.11.18.055.414-.123.526a.385.385 0 0 1-.197.061zm70.131-2.473a.428.428 0 0 1-.177-.043.383.383 0 0 1-.161-.517c.234-.445.465-.905.684-1.362a.384.384 0 1 1 .693.33c-.223.468-.458.932-.696 1.388a.385.385 0 0 1-.343.204zm-71.823-.53a.385.385 0 0 1-.342-.21c-.23-.457-.458-.929-.673-1.393a.386.386 0 0 1 .7-.322c.207.46.43.917.657 1.365a.383.383 0 0 1-.169.518.386.386 0 0 1-.173.042zm73.312-2.6a.413.413 0 0 1-.15-.027.383.383 0 0 1-.204-.502c.192-.468.384-.944.561-1.42a.387.387 0 0 1 .723.273c-.184.483-.384.97-.576 1.442a.385.385 0 0 1-.354.234zm-74.739-.537a.385.385 0 0 1-.354-.241 31.286 31.286 0 0 1-.553-1.45.383.383 0 0 1 .723-.257c.173.475.353.955.542 1.419a.383.383 0 0 1-.212.498.386.386 0 0 1-.146.031zm75.943-2.707a.409.409 0 0 1-.12 0 .384.384 0 0 1-.25-.484c.158-.48.304-.97.439-1.453a.385.385 0 0 1 .742.207c-.138.495-.288.993-.446 1.484a.385.385 0 0 1-.365.246zm-77.093-.549a.385.385 0 0 1-.384-.272 36.86 36.86 0 0 1-.423-1.488.383.383 0 0 1 .473-.489c.137.04.24.153.269.293.13.487.27.982.415 1.461a.383.383 0 0 1-.384.495h.034zm78.004-2.78h-.085a.383.383 0 0 1-.288-.457c.112-.49.215-.99.312-1.488a.391.391 0 0 1 .769.142c-.096.506-.2 1.016-.316 1.534a.385.385 0 0 1-.392.269zM44.5 69.085a.384.384 0 0 1-.385-.303 36.138 36.138 0 0 1-.296-1.534.388.388 0 0 1 .52-.43.39.39 0 0 1 .25.3c.088.494.184.997.288 1.491a.384.384 0 0 1-.296.453.29.29 0 0 1-.081.023zm79.5-2.83h-.054a.385.385 0 0 1-.33-.434c.069-.498.13-1.008.18-1.51a.383.383 0 0 1 .423-.342c.21.022.363.209.343.418-.05.514-.112 1.032-.185 1.534a.384.384 0 0 1-.377.334zm-80.073-.572a.384.384 0 0 1-.385-.337 40.634 40.634 0 0 1-.165-1.534.383.383 0 0 1 .35-.418.385.385 0 0 1 .42.349c.041.506.095 1.016.157 1.534.025.21-.125.4-.335.425l-.042-.019zm80.385-2.865a.384.384 0 0 1-.385-.383c.027-.503.046-1.013.054-1.534a.384.384 0 0 1 .769 0c0 .514-.027 1.035-.054 1.534a.384.384 0 0 1-.37.383h-.014zm-80.681-.575a.384.384 0 0 1-.385-.383c0-.514-.03-1.036-.03-1.535a.384.384 0 0 1 .769 0c0 .503 0 1.017.03 1.535a.384.384 0 0 1-.384.383zm80.754-2.876a.384.384 0 0 1-.385-.384c0-.506-.042-1.016-.077-1.534a.384.384 0 0 1 .554-.372c.123.06.206.181.215.318.039.514.062 1.032.081 1.534a.384.384 0 0 1-.385.384l-.003.054zm-80.708-.576a.385.385 0 0 1-.385-.402c.023-.514.058-1.036.1-1.534a.386.386 0 0 1 .77.065 37.625 37.625 0 0 0-.1 1.534.384.384 0 0 1-.404.337h.019zm80.45-2.868a.384.384 0 0 1-.385-.342 33.59 33.59 0 0 0-.207-1.503.388.388 0 0 1 .769-.119c.08.51.15 1.024.208 1.534.024.21-.125.4-.335.426l-.05.004zm-80.162-.572h-.053a.384.384 0 0 1-.331-.43c.069-.505.146-1.023.234-1.533a.385.385 0 0 1 .758.13 40.525 40.525 0 0 0-.227 1.504.384.384 0 0 1-.38.33zm79.593-2.838a.384.384 0 0 1-.385-.303c-.1-.494-.211-.993-.335-1.484a.383.383 0 1 1 .747-.18c.123.498.238 1.005.342 1.507a.383.383 0 0 1-.37.46zm-78.996-.56a.293.293 0 0 1-.081 0 .384.384 0 0 1-.293-.456c.108-.502.231-1.009.362-1.507a.385.385 0 0 1 .746.192c-.13.49-.25.989-.358 1.48a.384.384 0 0 1-.376.291zm78.153-2.78a.384.384 0 0 1-.365-.272c-.146-.484-.3-.97-.462-1.45a.383.383 0 0 1 .44-.522c.14.032.25.138.287.277.166.487.323.985.47 1.476a.383.383 0 0 1-.258.476.386.386 0 0 1-.112.011v.004zm-77.261-.564a.386.386 0 0 1-.116 0 .383.383 0 0 1-.25-.48c.154-.49.32-.985.493-1.472a.383.383 0 1 1 .723.257c-.17.48-.33.963-.48 1.446a.385.385 0 0 1-.37.25zm76.154-2.684a.385.385 0 0 1-.358-.246 38.151 38.151 0 0 0-.585-1.4.383.383 0 0 1 .393-.537c.137.015.256.101.311.227.208.468.408.95.596 1.43a.382.382 0 0 1-.215.499.447.447 0 0 1-.162.011l.02.016zM46.63 45.36a.383.383 0 0 1-.354-.53c.196-.479.385-.958.62-1.426a.385.385 0 0 1 .7.322 32.53 32.53 0 0 0-.609 1.396.385.385 0 0 1-.357.238zm73.554-2.612a.385.385 0 0 1-.347-.215 34.383 34.383 0 0 0-.703-1.346.39.39 0 0 1 .677-.384c.246.45.484.913.715 1.374a.383.383 0 0 1-.342.556v.015zm-72.1-.525a.386.386 0 0 1-.364-.267.383.383 0 0 1 .025-.293c.235-.457.485-.917.739-1.366a.385.385 0 0 1 .515-.145.384.384 0 0 1 .146.525c-.25.437-.492.89-.727 1.339a.385.385 0 0 1-.334.207zm70.427-2.49a.385.385 0 0 1-.327-.183c-.266-.43-.539-.863-.82-1.285a.383.383 0 0 1 .398-.587c.1.02.188.08.245.165.284.43.565.87.83 1.308a.383.383 0 0 1-.326.583zm-68.708-.51a.385.385 0 0 1-.323-.586c.288-.437.561-.875.854-1.296a.385.385 0 1 1 .634.421c-.288.415-.569.844-.838 1.27a.385.385 0 0 1-.327.192zm66.78-2.358a.385.385 0 0 1-.31-.157 47.7 47.7 0 0 0-.924-1.208.383.383 0 0 1 .246-.618.385.385 0 0 1 .358.142c.32.384.634.813.942 1.231a.383.383 0 0 1-.084.533.362.362 0 0 1-.227.077zm-64.81-.483a.383.383 0 0 1-.304-.614c.31-.41.634-.82.96-1.22a.385.385 0 0 1 .679.206.383.383 0 0 1-.086.282c-.32.387-.635.809-.946 1.192a.385.385 0 0 1-.304.154zm62.645-2.213a.385.385 0 0 1-.288-.13 26.218 26.218 0 0 0-1.027-1.124.383.383 0 0 1 .02-.545.385.385 0 0 1 .541.02c.354.383.704.766 1.047 1.15a.383.383 0 0 1-.039.54.385.385 0 0 1-.254.089zM54 33.72a.383.383 0 0 1-.285-.64c.343-.384.7-.767 1.062-1.132a.385.385 0 0 1 .668.15.383.383 0 0 1-.118.383c-.354.384-.704.737-1.042 1.113a.385.385 0 0 1-.285.126zm58.05-2.052a.385.385 0 0 1-.265-.107 40.296 40.296 0 0 0-1.116-1.032.384.384 0 0 1-.032-.542.386.386 0 0 1 .544-.033c.384.345.769.698 1.154 1.055a.383.383 0 0 1 0 .544.385.385 0 0 1-.304.115h.019zm-55.646-.425a.385.385 0 0 1-.28-.12.383.383 0 0 1 0-.544c.384-.349.768-.698 1.153-1.035a.385.385 0 0 1 .533.046.383.383 0 0 1-.03.533c-.384.33-.768.675-1.13 1.016a.385.385 0 0 1-.246.104zm53.034-1.872a.385.385 0 0 1-.242-.088c-.384-.318-.8-.633-1.2-.936a.383.383 0 1 1 .462-.613c.411.306.823.629 1.223.955a.383.383 0 0 1-.243.682zm-50.407-.383a.385.385 0 0 1-.239-.687c.404-.318.82-.633 1.239-.936a.386.386 0 0 1 .538.085.384.384 0 0 1-.084.537c-.412.299-.82.606-1.216.916a.385.385 0 0 1-.238.104v-.02zM61.892 26.952a.385.385 0 0 1-.319-.172.383.383 0 0 1 .12-.522c.215-.142.43-.284.65-.422a.387.387 0 0 1 .532.121c.114.18.06.418-.121.531l-.642.41a.385.385 0 0 1-.22.054z"/>
            </g>
            <g fill="#000">
                <path d="M53.07 92.192l1.86 1.68-7.584 8.114-1.861-1.68zM55.704 94.63l1.45 1.013-1.204 5.668 3.115-4.337 1.704 1.193-6.473 9.012-1.392-.97 1.446-6.002-3.358 4.671-1.761-1.227zM57.462 108.169c-.224-.734-.08-1.655.43-2.762l2.077.668a3.444 3.444 0 0 0-.442 1.46.767.767 0 0 0 .458.737c.384.184.688.039.927-.44.185-.345.264-.736.226-1.125a4.642 4.642 0 0 0-.407-1.307l-.512-1.182a4.89 4.89 0 0 1-.45-1.64 3.126 3.126 0 0 1 .385-1.612c.32-.74.95-1.3 1.723-1.534a3.44 3.44 0 0 1 2.442.357c.97.475 1.489 1.074 1.566 1.79a4.289 4.289 0 0 1-.435 2.264l-2.062-.721c.19-.37.327-.766.408-1.174a.544.544 0 0 0-.354-.594.57.57 0 0 0-.569.019c-.177.102-.32.254-.411.437-.161.292-.227.627-.189.959.07.397.19.783.358 1.15l.488 1.15a5.74 5.74 0 0 1 .496 1.888 3.497 3.497 0 0 1-.407 1.852 2.725 2.725 0 0 1-2.358 1.538 3.292 3.292 0 0 1-1.57-.357c-.979-.478-1.585-1.085-1.818-1.821zM67.92 103.455l-1.612-.54.577-1.722 5.653 1.875-.576 1.722-1.616-.537-2.961 8.76-2.404-.798zM72.777 103.16l3.077.545c1.23.218 2.123.59 2.692 1.123.57.533.739 1.335.554 2.413a4.375 4.375 0 0 1-.592 1.683c-.304.418-.752.71-1.258.817l.627 5.542-2.562-.434-.384-5.1-.708-.123-.846 4.882-2.48-.437 1.88-10.911zm2.377 5.17a1.26 1.26 0 0 0 1.111-.2 2.4 2.4 0 0 0 .412-2.255 1.154 1.154 0 0 0-.892-.537l-.804-.142-.523 3.015.696.119zM81.504 115.233a2.257 2.257 0 0 1-1.05-1.197 5.7 5.7 0 0 1-.3-2.005v-7.632l2.488.023v8.004c-.015.365.045.729.177 1.07a.704.704 0 0 0 .712.383.677.677 0 0 0 .7-.383c.127-.34.184-.7.169-1.063v-7.996l2.504.023v7.636c.02.68-.084 1.359-.308 2.002a2.234 2.234 0 0 1-1.05 1.177 4.218 4.218 0 0 1-2.02.384c-.698.026-1.393-.12-2.022-.426zM87.765 104.44l2.658-.46 2.43 6.137.128-6.566 2.557-.445 2.262 10.865-1.758.303-1.58-7.214.073 7.479-1.562.272-2.77-7.068 1.22 7.337-1.78.31zM96.512 102.7l4.796-1.657.58 1.572-2.446.852.958 2.589 1.862-.649.592 1.6-1.866.648 1.154 3.118 2.473-.86.573 1.558-4.838 1.683zM101.765 100.855l1.562-.805 4.615 3.662-2.554-4.72 1.835-.948 5.312 9.81-1.504.767-4.812-4.027 2.754 5.086-1.896.985zM109.973 98.358l-1.385.978-1.092-1.476 4.808-3.402 1.092 1.48-1.377.97 5.554 7.525-2.035 1.458zM120.327 101.4c-.77-.05-1.612-.507-2.5-1.37l1.327-1.672c.345.396.773.711 1.254.925a.798.798 0 0 0 .854-.165c.303-.288.265-.625-.112-1.017a2.09 2.09 0 0 0-1-.598 4.775 4.775 0 0 0-1.388-.084l-1.3.057a5.014 5.014 0 0 1-1.716-.165 3.213 3.213 0 0 1-1.423-.893 2.742 2.742 0 0 1-.904-2.136c.098-.83.511-1.59 1.154-2.125.77-.729 1.514-1.002 2.235-.82.767.216 1.464.629 2.023 1.196l-1.377 1.649a4.702 4.702 0 0 0-.989-.786.563.563 0 0 0-.688.119.54.54 0 0 0-.17.529c.041.209.143.4.293.552.228.25.525.427.854.51.402.076.811.099 1.22.07l1.25-.05a5.943 5.943 0 0 1 1.984.191 3.717 3.717 0 0 1 1.638 1.028c.352.354.605.795.73 1.277.12.474.104.973-.045 1.438a3.067 3.067 0 0 1-.866 1.32c-.78.73-1.559 1.07-2.338 1.02z"/>
            </g>
            <path fill="#FFF" d="M34.962 58.933v12.273c0 10.378 21.953 18.792 49.038 18.792 27.085 0 49.038-8.414 49.038-18.792V58.933c0 10.378-21.953 18.792-49.038 18.792-27.085 0-49.038-8.414-49.038-18.792"/>
            <path fill="#3FA9F5" d="M84 90.957c-28.038 0-50-8.675-50-19.751V58.933h1.923c0 4.526 5 9.044 13.746 12.392 9.154 3.509 21.346 5.442 34.331 5.442 12.985 0 25.177-1.918 34.33-5.442 8.747-3.348 13.747-7.866 13.747-12.392H134v12.273c0 11.076-21.962 19.75-50 19.75zM35.923 64.494v6.712c0 4.525 5 9.043 13.746 12.391 9.154 3.51 21.346 5.442 34.331 5.442 12.985 0 25.177-1.917 34.33-5.442 8.747-3.348 13.747-7.866 13.747-12.391v-6.727c-5.93 8.291-24.935 14.19-48.077 14.19s-42.146-5.899-48.077-14.19v.015z"/>
            <path fill="#000" d="M61.015 81.894a3.065 3.065 0 0 1-.738 1.396c-.34.372-.781.639-1.27.767a3.124 3.124 0 0 1-1.572 0 2.937 2.937 0 0 1-1.37-.728 2.683 2.683 0 0 1-.738-1.266 3.098 3.098 0 0 1 0-1.557c.118-.508.367-.976.723-1.358a2.67 2.67 0 0 1 1.246-.767 3 3 0 0 1 1.539 0 3.08 3.08 0 0 1 1.407.737c.368.34.634.776.77 1.258.132.497.133 1.02.003 1.518zm-3.369 1.415c.358.093.736.077 1.085-.046.344-.12.648-.333.88-.613.243-.282.414-.617.5-.978a2.207 2.207 0 0 0 0-1.109 2.031 2.031 0 0 0-.519-.935 1.952 1.952 0 0 0-.954-.53 1.851 1.851 0 0 0-1.907.61c-.24.294-.409.64-.493 1.009-.1.375-.114.769-.038 1.15.072.348.243.667.492.92.264.259.594.44.954.522zM65.404 81.484l.165-.928-2.088-.384-.296 1.646 1.8.326-.123.69-1.8-.322-.331 1.829.707.127-.123.694-2.253-.407.123-.69.703.126.75-4.172-.7-.123.139-.675 4.323.767-.292 1.622zM72.338 82.81l.154-1.353-1.154-.127-.469 4.22.731.083-.077.698-2.308-.253.077-.701.716.08.469-4.219-1.154-.126-.154 1.35-.692-.077.227-2.052 4.554.507-.227 2.051zM75.062 81.672l-.1 1.591 2.453.154.104-1.592-.661-.042.046-.702 2.161.138-.046.702-.65-.042-.269 4.219.654.042-.046.702-2.162-.135.042-.702.662.039.123-1.918-2.458-.157-.119 1.918.666.042-.047.702-2.157-.135.046-.701.634.038.27-4.219-.639-.042.046-.702 2.158.134-.042.706zM83.265 82.941v-.943l-2.419-.046-.03 1.68 2.103.042v.702l-2.107-.039-.035 1.849 2.423.046V85.2h.7l-.035 1.734-4.68-.081v-.702h.73l.077-4.218h-.727v-.702l4.704.084-.03 1.65zM87.846 81.96l1.25 3.65.846-3.762-.673.035-.038-.702 2.596-.138.035.702-.666.038 1.227 3.651.862-3.762-.67.034-.034-.702 2.073-.11.038.701-.654.035-1.153 5.07-.8.042-1.516-4.422-1.027 4.556-.792.042-1.712-4.916-.665.034-.038-.702 2.161-.115.035.706zM100.812 82.968c.072.53.001 1.07-.204 1.565-.191.465-.513.864-.927 1.15a3.156 3.156 0 0 1-1.473.541 2.93 2.93 0 0 1-1.539-.207 2.652 2.652 0 0 1-1.154-.928 3.116 3.116 0 0 1-.538-1.461 2.907 2.907 0 0 1 .2-1.534c.186-.462.5-.86.904-1.15a3.013 3.013 0 0 1 1.442-.542 3.104 3.104 0 0 1 1.577.2c.462.192.86.508 1.154.913.31.427.502.928.558 1.453zm-2.658 2.504c.367-.038.714-.185.996-.421.282-.234.496-.538.62-.883.126-.349.169-.724.122-1.093a2.263 2.263 0 0 0-.384-1.039 1.959 1.959 0 0 0-1.892-.855 1.865 1.865 0 0 0-.981.383c-.272.22-.477.511-.593.84-.12.358-.159.738-.111 1.112.042.392.173.769.384 1.101.184.3.451.54.77.69.334.152.704.209 1.069.165zM105.415 80.828c.066.324.014.661-.146.951-.18.292-.45.518-.769.644l1.335 1.841.68-.119.123.695-1.25.218-1.684-2.378-.77.138.331 1.895.712-.123.12.694-2.309.384-.123-.694.77-.13-.743-4.158-.769.13-.123-.69 2.308-.402a2.7 2.7 0 0 1 1.615.08 1.3 1.3 0 0 1 .692 1.024zm-.873.134a.671.671 0 0 0-.342-.525 1.334 1.334 0 0 0-.804-.046l-.865.15.277 1.58.811-.142c.284-.03.552-.143.77-.326a.765.765 0 0 0 .153-.69zM107.462 79.59l.95 4.13 1.811-.418-.385-1.703.685-.157.55 2.393-4.042.924-.158-.686.712-.165-.95-4.127-.712.169-.158-.687 2.254-.514.158.687zM116.146 79.313c.297.77.223 1.632-.2 2.34-.42.632-1.18 1.12-2.284 1.453l-2.024.618-.203-.675.723-.223-1.235-4.05-.723.223-.208-.675 2.058-.625c1.112-.338 2-.384 2.692-.127.693.257 1.127.844 1.404 1.741zm-.88.307a2.35 2.35 0 0 0-.585-1.047 1.54 1.54 0 0 0-.966-.414 3.914 3.914 0 0 0-1.453.21l-.524.158 1.239 4.054.515-.158c.834-.255 1.393-.607 1.677-1.054.29-.54.325-1.18.096-1.749z"/>
            <path fill="#3FA9F5" d="M84 78.684c-28.038 0-50-8.675-50-19.75 0-5.657 5.685-10.831 16.008-14.574l.657 1.802c-9.357 3.398-14.742 8.05-14.742 12.771 0 4.526 5 9.044 13.746 12.392 9.154 3.509 21.346 5.442 34.331 5.442 12.985 0 25.177-1.918 34.33-5.442 8.747-3.348 13.747-7.866 13.747-12.392 0-4.801-5.527-9.51-15.165-12.916l.642-1.807C128.162 47.957 134 53.184 134 58.933c0 11.076-21.962 19.751-50 19.751z"/>
            <path fill="#3FA9F5" d="M116.692 43.873v2.067c.554.196 1.104.383 1.639.598 8.746 3.348 13.746 7.866 13.746 12.395 0 4.53-5 9.044-13.746 12.392-9.154 3.509-21.346 5.442-34.331 5.442-12.985 0-25.177-1.918-34.33-5.442-8.747-3.348-13.747-7.866-13.747-12.392 0-4.525 5-9.047 13.746-12.395.285-.107.581-.21.87-.314V44.14C40.334 47.735 34 52.985 34 58.933c0 11.076 21.962 19.751 50 19.751s50-8.675 50-19.75c0-6.095-6.654-11.464-17.308-15.061zM53.354 80.717a.663.663 0 0 1-.17-.023c-.769-.23-1.492-.476-2.21-.721a.578.578 0 1 1 .384-1.09c.707.246 1.438.484 2.173.71a.575.575 0 0 1-.17 1.124h-.007z"/>
            <path fill="#85F5EE" d="M49.454 79.363a.617.617 0 0 1-.204-.034 50.099 50.099 0 0 1-4.05-1.742.576.576 0 1 1 .508-1.035c1.219.594 2.55 1.15 3.954 1.699a.576.576 0 0 1-.208 1.112zm-5.616-2.55a.605.605 0 0 1-.276-.07 30.157 30.157 0 0 1-3.739-2.392.581.581 0 0 1-.104-.817.585.585 0 0 1 .82-.104 28.98 28.98 0 0 0 3.592 2.301.575.575 0 0 1-.277 1.078l-.016.004zm-5.057-3.506a.566.566 0 0 1-.385-.15 13.907 13.907 0 0 1-2.858-3.497.578.578 0 0 1 1.012-.556 12.913 12.913 0 0 0 2.627 3.206.574.574 0 0 1-.385.997h-.011z"/>
            <path fill="#3FA9F5" d="M35.315 68.291a.585.585 0 0 1-.553-.383 8.182 8.182 0 0 1-.385-2.436.576.576 0 0 1 1.154 0c.002.71.113 1.414.327 2.09a.579.579 0 0 1-.385.721.536.536 0 0 1-.158.008zM132.685 68.291a.577.577 0 0 1-.554-.744 7.057 7.057 0 0 0 .327-2.094.576.576 0 0 1 1.154 0 8.182 8.182 0 0 1-.385 2.435.584.584 0 0 1-.542.403zM122.754 77.545a.58.58 0 0 1-.258-1.093 32.846 32.846 0 0 0 4.173-2.427.578.578 0 0 1 .938.41.575.575 0 0 1-.276.53 33.076 33.076 0 0 1-4.32 2.519.578.578 0 0 1-.257.061zm5.861-3.731a.57.57 0 0 1-.442-.207.574.574 0 0 1 .07-.81 13.819 13.819 0 0 0 3.1-3.524.582.582 0 0 1 .769-.207.572.572 0 0 1 .207.786 14.97 14.97 0 0 1-3.35 3.835.601.601 0 0 1-.354.127zM118.754 79.286a.576.576 0 0 1-.208-1.112 52.34 52.34 0 0 0 2.112-.867.575.575 0 1 1 .462 1.055c-.69.3-1.416.598-2.158.886a.66.66 0 0 1-.208.038z"/>
        </g>
    </g>
</svg>
