<?xml version="1.0" encoding="UTF-8"?>
<svg width="99px" height="90px" viewBox="0 0 99 90" version="1.1" xmlns="http://www.w3.org/2000/svg" xmlns:xlink="http://www.w3.org/1999/xlink">
    <!-- Generator: Sketch 49.3 (51167) - http://www.bohemiancoding.com/sketch -->
    <title>Asset 1</title>
    <desc>Created with Sketch.</desc>
    <defs>
        <linearGradient x1="49.9878374%" y1="111.426016%" x2="49.9878374%" y2="-8.98615786%" id="linearGradient-1">
            <stop stop-color="#6BFFDA" offset="0%"></stop>
            <stop stop-color="#5A9EA9" offset="100%"></stop>
        </linearGradient>
    </defs>
    <g id="Page-1" stroke="none" stroke-width="1" fill="none" fill-rule="evenodd">
        <g id="Desktop-Copy-10" transform="translate(-463.000000, -262.000000)" fill-rule="nonzero">
            <g id="Asset-1" transform="translate(463.000000, 262.000000)">
                <path d="M66.0421432,7.35723035e-05 L32.9492317,7.35723035e-05 C27.0837677,-0.0142715168 21.6589713,3.11232609 18.7290174,8.19593646 L2.19029006,36.8041371 C-0.730096687,41.8774582 -0.730096687,48.1225418 2.19029006,53.1958629 L18.7290174,81.8040635 C21.6589713,86.8876739 27.0837677,90.0142715 32.9492317,89.9999264 L66.0266864,89.9999264 C71.8930055,90.0174879 77.319299,86.8900275 80.2469006,81.8040635 L96.785628,53.1958629 C99.738124,48.1311779 99.738124,41.8688221 96.785628,36.8041371 L80.2623574,8.19593646 C77.3347557,3.1099725 71.9084622,-0.0174879475 66.0421432,7.35723035e-05 Z" id="Shape" fill="url(#linearGradient-1)"></path>
                <path d="M96.7855045,36.2641417 L89.6396299,24 C87.3565593,54.5046295 61.7260031,78.103048 30.8640379,78.1155255 C25.850883,78.1265147 20.8564934,77.508393 16,76.2759042 L18.784107,80.8749574 C21.7160524,85.9146102 27.1445363,89.0141723 33.0139872,88.9999513 L66.1139258,88.9999513 C71.9871915,89.0133071 77.4198803,85.914712 80.3592732,80.8749574 L96.9092426,52.5141296 C99.7403736,47.4493369 99.6934419,41.2860046 96.7855045,36.2641417 Z" id="Shape" fill="#333333" opacity="0.1"></path>
                <ellipse id="Oval" fill="#000000" cx="29.5" cy="50.5" rx="7.5" ry="9.5"></ellipse>
                <ellipse id="Oval" fill="#000000" cx="69.5" cy="50.5" rx="7.5" ry="9.5"></ellipse>
                <path d="M79.7468268,43.7432561 C79.2185181,43.4188596 78.7484802,43.0095024 78.3560319,42.5320094 C75.5649257,37.7339486 70.150252,35.051921 64.6009178,35.7187463 C63.7604067,35.8569575 62.8998078,35.6413708 62.2266462,35.1239727 C61.5534846,34.6065747 61.1288559,33.8343239 61.055155,32.9934411 C60.7283603,31.2396816 61.88686,29.5519322 63.6533433,29.208295 C71.7059503,28.0253273 79.645582,31.9580318 83.5218415,39.0496749 C84.4170967,40.5760255 84.0238211,42.5240213 82.6048339,43.5918503 C81.7268543,44.0767355 80.6719987,44.1326175 79.7468268,43.7432561 Z" id="Shape" fill="#000000"></path>
                <path d="M18.3621367,43.7211288 C18.8869851,43.404715 19.3479184,42.9945826 19.7214994,42.5115855 C22.5166142,37.7263519 27.9235017,35.0502452 33.4678633,35.7079047 C34.2983421,35.8275481 35.141969,35.6037094 35.8006646,35.0889451 C36.4593601,34.5741807 36.8751018,33.8138346 36.9502754,32.9864324 C37.258829,31.2339364 36.1002873,29.5572894 34.3384663,29.2066097 C26.2917245,28.0299088 18.3596755,31.9558292 14.4826074,39.0341487 C13.5806848,40.5571564 13.9747317,42.5074681 15.3990316,43.5699359 C16.306118,44.0843332 17.4064276,44.1404767 18.3621367,43.7211288 Z" id="Shape" fill="#000000"></path>
                <path d="M64.8851858,75.9619681 C64.2905082,75.9580953 63.7071525,75.7998216 63.1928385,75.5028071 C59.0247133,73.154149 54.2882564,71.9893979 49.5002098,72.1356268 C44.7121631,71.9893979 39.9757062,73.154149 35.8075811,75.5028071 C34.8731722,76.104296 33.6871833,76.1641729 32.6963648,75.659883 C31.7055463,75.155593 31.0604271,74.1637497 31.0040174,73.0579709 C30.9476077,71.9521921 31.4884775,70.9004718 32.4228863,70.298983 C37.6065469,67.3247342 43.5186769,65.8411032 49.5002098,66.0134808 C55.4765552,65.8439528 61.3829727,67.3274868 66.5621482,70.298983 C67.2640724,70.7385333 67.7579,71.4413719 67.9316851,72.2481722 C68.1054701,73.0549724 67.9444934,73.8974002 67.4852468,74.5844852 C66.9101527,75.4533448 65.9308525,75.9721669 64.8851858,75.9619681 Z" id="Shape" fill="#000000"></path>
                <path d="M89,71.6666667 C89,75.1644701 86.3137085,78 83,78 C79.6862915,78 77,75.1644701 77,71.6666667 C77,68.1833333 79.685,59 83,59 C86.315,59 89,68.1833333 89,71.6666667 Z" id="Shape" fill="#89F7E8"></path>
                <ellipse id="Oval" fill="#FFFFFF" opacity="0.3" cx="37.5" cy="8" rx="11.5" ry="5"></ellipse>
            </g>
        </g>
    </g>
</svg>