<svg xmlns="http://www.w3.org/2000/svg" width="122" height="104" viewBox="0 0 122 104">
    <g fill="none" fill-rule="evenodd">
        <g stroke="#3FA9F5">
            <path d="M65.553 39.805c-.05.35-.473.38-.723.259-1.58-.764-2.775.187-4.028.869-.556.303-1.059.716-1.636.963-.658.28-1.55.333-.76 1.377-.82.877-.2 1.552.3 2.292-1.553 1.229-1.75 2.997-1.405 4.764.234 1.2.432 2.169-.828 2.84-.424.227-.31.727-.513 1.074-.424.725-.912.907-1.323.267-.56-.87-1.202-.75-1.949-.513-.776.246-1.549.48-2.159 1.086-.777.769-1.804.973-2.794 1.202-.518-.512-.362-1.377-.999-1.66-.722-.32-.98.644-1.654.73-.592.075-1.137.523-1.716.812-.296-.503-.177-.89.257-1.064 1.591-.634 1.734-.828 1.576-2.513.47-.078.511.63.972.535.497-.102.966-.271 1.506-.212.258.029.462-.382.296-.682-.352-.632.07-.846.52-1.024.262-.103.571-.088.842-.176.925-.302 2.001-.398 2.013-1.8.004-.43.282-.875.307-1.348.01-.215.261-.484.01-.635-.906-.542-.337-1.34-.415-2.03-.098-.865.31-1.25 1.07-1.53.81-.297 1.321-1.056 1.432-2.02.051-.433.502-.632.523-1.096-.738-.743-1.355-1.608-2.375-2.018-.417-.167-.615-.464-.635-.937-.102-2.321.553-4.374 2.42-5.805 1.014-.778 1.671-1.726 2.238-2.804.111-.211.28-.42.11-.636-.898-1.136.298-1.69.637-2.504.294-.704.913-.556 1.394-.714.53-.175 1.085.072 1.411.485.37.47.044.922-.19 1.425-.64 1.379-1.693 2.462-2.485 3.726-.118.189-.298.45-.474.472-1.056.129-.914.9-.84 1.57.066.629.178 1.284.43 1.856.408.928.61 1.786.445 2.85-.122.779.42 1.793 1.05 2.223.67.456 1.562.733 2.61.308 1.114-.454 2.07-1.175 3.2-1.595.635-.236 1.295-.473 1.92-.764.772-.36 1.31-.087 1.763.5-.256.748-1.234.77-1.35 1.595zm20.291 32.564c.15-.566.31-1.133.83-1.49.945-.642 1.847-1.333 2.584-2.221.14-.167.371-.287.583-.355a.594.594 0 0 1 .478.077c.254.199.085.429-.076.586-.203.2-.45.357-.713.558.123.61.555.744.828.937-.083.804-.667 1.423-.32 2.212-1.036.178-1.923.433-2.759.838-.314.15-.629.405-.95.076-.32-.33-.626-.693-.485-1.218zm-14.58 27.026c.726-1.137.737-1.261.056-1.772-.324-.242-.695-.425-1.057-.607-.265-.133-.634-.261-.599-.56.096-.814-.427-.838-.972-.865-.413-.02-.975.016-1.08-.398-.287-1.102-1.219-1.675-1.822-2.511-.176-.245-.202-.534.074-.8.2.107.441.176.603.329 1 .943 1.036.996 1.978.143.237-.216.771-.072.827-.544l-.187-.262-1.157-.637c.485.127.938-1.362 1.42-.05.05.132.377.058.41-.112.202-1.053 1.007-.766 1.656-.741.203.008.368.045.505.102l2.925-3.9.437-.35a6.361 6.361 0 0 1-.474-.742c-.483-.871-.279-1.965.185-2.623.517-.73.502-1.39.471-2.11-.043-.991.024-1.851 1.057-2.367.426-.213.703-.71.574-1.177-.428-1.56.837-2.531 1.256-3.79.12-.36.786-.373.922-.176.897 1.3 1.932.645 2.965.313.091-.03.216.045.437.096-.408.776-1.193 1.098-1.459 1.813.156.328.402.493.711.48.931-.036 1.534.185 1.656 1.303.072.66 1.358.717 1.848.047.383-.523.845-.936 1.273-1.395.591-.635 1.387-.753 2.073-1.117l.068-.205 4-1 5-2 6-1 3.605-2.704c-.014-.097-.03-.193-.046-.29-.118-.697-.007-1.338.771-1.571 1.162-.348.756-1.526 1.18-2.264.323-.565-.58-.663-1.023-.876-.054-.026-.007-.221-.064-.291-.903-1.111-1.798-2.251-3.5-1.823-.249.062-.483.026-.634-.17-.578-.746-2.247-.822-1.489-2.404.03-.061-.08-.22-.16-.295-.94-.895-.597-1.921-.423-2.926.582-.093.838.283 1.177.493.4.247.652-.045.903-.281.223-.207.4-.44.13-.741-.655-.737-.499-1.555-.079-2.28.606-1.045.492-2.662 2.2-2.901.16-.022.285-.338.415-.526.188-.274.404-.383.73-.21.281.15.583.105.83-.072.934-.668 1.762-.153 2.61.204.368.155.555.628 1.02.588.488-.2-.044-.645.236-.886 1.424.314 1.485.33 1.808-.936.377-1.48 2.111-1.162 2.807-2.214.06-.09.63.227.966.237.567.015 1.276.206 1.622-.37.324-.541.855-.77 1.263-1.17.79-.773.752-.905.428-1.992-.287-.96-1.004-.731-1.553-.637-.832.14-1.444.09-1.899-.722-.265-.474-.802-.456-1.262-.304a2.584 2.584 0 0 0-1.182.798c-.505-.708-.62-1.467-1.184-2.035-.48-.485-.637-1.115-.276-1.903.378-.826-.012-1.611-.819-2.26-.592.678-.76 1.523-1.508 1.996-.403.255-.653.273-1.045.186-.492-.111-.828-.3-.82-.798.331-.272.521-.037.731-.018.554.052 1.145-.097 1.222-.682.115-.868.674-1.901-.54-2.528-.175-.091-.205-.415-.619-.471-.397.353-.93.709-1.534.906-.532.174-1.002.035-1.42-.406-.44-.463-.303-.807.056-1.2.23-.251.246-.533-.057-.743-.384-.267-.385-.566-.078-.858.442-.421.385-.8-.02-1.192-.178-.172-.298-.407-.175-.627.541-.965-.12-1.292-.705-1.927-.546-.593-1.227-.564-1.824-.943-.084-.988.226-2.065-.41-2.905-1.316-1.737-1.665-4.123-3.65-5.414-.219-.141-.368-.47-.439-.738-.237-.903-.585-1.728-1.206-2.45-.305-.353-.466-.801.051-1.212.546-.433.778-.963.435-1.68-.192-.4.073-.802.278-1.152.278-.473.377-.968.335-1.508-.06-.772.158-1.47.414-2.202.25-.711.287-1.55.198-2.31-.058-.51-.342-1.196-1.185-.872-.279.107-.44.02-.462-.28-.06-.894-.564-1.22-1.404-1.071-.256.046-.306-.105-.343-.264-.177-.762-.74-.661-1.238-.497-.76.25-1.532.426-2.25.863-.913.552-2.015.483-3.07.43-.357-.02-.736.02-.806.473-.078.493.242.812.656.89.51.098 1.047.052 1.571.063.772.018 1.34.299 1.521 1.088-.344.453-.784.269-1.169.298-.293.022-.655-.017-.784.274-.61 1.38-2.212 1.857-2.869 3.184-.113.23-.265.388-.536.287-.232-.087-.392-.26-.337-.531.057-.276.236-.574-.242-.677-.529.172-.804.604-1.055 1.076-.245.46-.407 1-.853 1.31-1.19.824-1.74 2.137-2.566 3.24-.31.419-.389.757-.268 1.273.195.827-.485 1.454-1.265 1.197-.412-.136-.885-.268-1.12-.694.107-.453.428-.677.75-.945.562-.467.5-.832-.102-1.208-1.397-.871-2.599-.165-4.199.483 1.315.309 1.777 1.047 1.885 1.937.086.705.31 1.19.937 1.545.202.115.38.505.351.742-.049.403-.445.48-.815.488-.528.014-1.167-.04-1.349.57-.379 1.269-1.488 2.036-2.043 3.157.204.759 1.191.716 1.463 1.439-.233.317-.52.476-.903.45-.807-.053-1.622.089-2.409-.284-.474-.223-.71.178-.926.559-.264.465-.067.72.28 1.033.528.479 1.39.278 1.856.946-.392.66-.947.612-1.51.39-.32-.125-.61-.506-.898-.49-1.002.056-1.268-.668-1.614-1.34-.214-.415-.438-.823-.382-1.322.077-.692-.3-1.076-.898-1.333-.247-.107-.55-.177-.668-.482.057-.03.11-.078.161-.08 1.285-.011 2.57-.014 3.853-.027 1.462-.015 3.157-1.177 3.687-2.504.184-.46.324-1.034-.058-1.31-.729-.527-1.087-1.455-2.155-1.651-1.644-.303-3.248-.831-4.87-1.26-.496-.13-.95-.191-1.51-.066-.795.179-1.702.37-2.41-.492-.177-.215-.912-.588-1.234-.095-.472.72-.933.394-1.44.194-.019-.524.863-.433.682-1.153-1.599-.3-3.123-1.501-4.913-.475-.089.05-.235.03-.346.008-1.813-.372-3.177.622-4.305 1.734-.605.595-1.219.792-1.916.99-.183.054-.423-.165-.626.056-.958 1.04-2.514 1.479-2.923 3.127-.3-.365-.616-.847-.852-.368-.325.66-1.656.392-1.338 1.54-.596.405-1.284.694-1.683 1.345-.079.13-.058.227.178.355.775.02 1.341-.938 2.378-.776-.759.572-.368 1.563-1.009 2.17-.902.855-1.48 1.976-1.815 3.112-.345 1.174-1.05 2.033-1.769 2.916-.616.758-1.399 1.377-1.836 2.286-.139.289-.378.342-.725.225-.926-.312-1.069.62-1.51 1.056-.079.078.222.435-.124.533-1.387.39-1.897 2.139-3.484 2.234-.23.014-.33.312-.332.556-.008 1.299-.379 2.56-.262 3.893.05.557.21.988.428 1.427.357.718-.775.862-.532 1.508.02.052 0 .118.016.173.334 1.187.418 2.427 1.76 3.154 1.2.65 2.342.712 3.214-.414.764-.987 1.717-1.543 2.91-1.831.405.7-.186 1.688.595 2.145.877.513.087 1.346.535 2.008.377.556.906 1.02 1.17 1.69.406 1.033.092 1.857-1.003 2.064-.487.09-.986.066-1.309.555-.394-.677.514-1.18-.006-1.88-.707-.953-.624-1.013.622-1.832-.704-.196-.658-.873-1.096-1.351-1.12.402-1.837 1.518-3.033 1.793-.172.04-.358.33-.412.538-.174.67-.49 1.396-.368 2.026.12.617-.307 1.347.43 1.908.861.658-.627 1.037-.335 1.695.07.16.126.327.2.486.17.37.346.739.581 1.238-.275.233-.658.756-.864.695-1.337-.406-2.454.507-3.726.505-1.32-.001-1.55.406-2.042 1.655-.835 2.118-2.009 3.95-4.559 4.29-.793.105-1.32.573-1.31 1.377.007.795-.357 1.309-1.054 1.34-.967.043-1.429.628-1.835 1.423-.544-.39-1.349-.022-1.59-.667-.3-.795-.849-.73-1.715-.874.495 1.03.708 1.869.407 2.873-.657-.415-1.405-.084-2.12-.52-.948-.577-2.043-.361-3.06-.024-.344.113-.402.396-.43.81-.064.88.228 1.364 1.013 1.735.995.47.97.525 1.166 1.553.374.114.37-.415.766-.401.263.384.802.81.8 1.234-.009 1.344.738 2.387 1.164 3.556.17.467.172.904-.055 1.35-.448.882-.773 1.777-.945 2.786-.294 1.728-1.01 2.02-2.775 1.533-.666-.185-1.288-.58-2.014-.507-.79.08-1.485-.166-2.173-.523a5.194 5.194 0 0 0-1.31-.47c-1.13-.235-2.287-.36-3.238-1.12-.304-.242-.675-.244-.975.003-.508.419-1.092.465-1.716.552-.462.064-1.226.355-1.02.97.584 1.745-.149 3.314-.449 4.94-.257 1.404-1.009 2.567-1.88 3.649a9.417 9.417 0 0 0-.784 1.145c-.326.55-.353.973.025 1.566.736 1.153.29 2.344-.183 3.48-.105.25-.412.438-.093.853 1.025-.053 2.016.51 3.158.442 1.295-.076 1.62.263 1.816 1.557.147.97.507 1.764 1.46 2.283 1.422-1.254 3.015-1.613 4.817-1.068.376.113.826.194 1.19.176 1.036-.053 2.332.446 2.862-1.07.121-.345.496-.466.871-.484.402-.021.803-.05 1.336-.084-.154-1.776 1.45-2.025 2.486-2.82-.12-.196-.182-.356-.29-.467-.92-.924-.924-1.587-.053-2.41.721-.68 1.514-1.326 2.065-2.131.42-.615.82-.891 1.538-.885 1.311.012 2.184-1.006 3.255-1.542.4-.2.616-.95.434-1.571-.064-.223-.159-.444-.179-.67-.087-.933.116-1.091 1.02-1.526 1.157-.554 2.19-.142 3.115.382 1.627.924 1.583.994 3.114-.243.271-.22.543-.511.86-.59 1.177-.292 2.078-.992 2.847-1.837 2.635 1.19 3.188 2.286 2.24 4.323.397.448.952-.417 1.394.224.956 1.386 2.577 2.11 3.573 3.478.125.17.385.253.594.352.758.359 1.908.239 1.853 1.599-.005.125.62.433.901.382.612-.111.992-.137.967.653-.01.333.324.495.593.567 1.422.385 1.523 1.718 2.027 2.762.082.17.1.345-.058.473-.537.429-.679 1.155-1.622 1.325-1.302.236-2.519.918-3.872.244-.088-.045-.226.01-.342.018-.827.052-1.667.53-1.595.978.101.637.64.853 1.182 1.134 1.097.57 2.342.863 3.27 1.787.443.442 1.027.488 1.504-.132.164-.215.476-.316.63-.412-.538-1.4-.538-1.4-.15-2.835 1.28.667 1.272.662 2.04-.46.262-.381.625-.698.59-1.225-.015-.244.132-.4.32-.57 1.004-.911.976-1.41-.093-2.202-.19-.14-.389-.255-.473-.574.353-.327.063-1.021.67-1.305.674.2 1.493.05 1.903.906.155.322.581.432.914.194.328-.235.32-.666.182-.964-.297-.648-.815-1.112-1.466-1.44-1.23-.622-2.446-1.271-3.67-1.91.493-.868.434-1.083-.272-1.185-.114-.017-.233-.006-.35-.015-2.257-.167-3.394-.955-3.867-3.027-.206-.903-.596-1.454-1.354-1.853a4.347 4.347 0 0 1-.578-.387c-.739-.556-.964-1.14-.512-2.027.314-.618-.196-.835-.352-1.31.573-.19.867-.93 1.731-.764.138.448.24.954.453 1.407.18.38.27 1.158 1.004.493.198.462.361.962 1.061.703.04-.015.367.408.323.554-.283.919.138 1.25.97 1.425.304.065.56.4.817.635.765.696 1.533 1.34 2.606 1.576 1.254.275 2.275 1.109 3.355 1.745.81.477 1.635 1.205 1.233 2.484-.168.533-.033 1.16-.038 1.745-.003.36.044.71.336.957.404.34 1.344.465.481 1.279.368.42.64.89 1.27 1.073 1.09.316 1.107.396 1.056 1.433-.024.504-.135 1.004-.197 1.43.76.813 1.193-.167 1.762-.364.376 1.156-1.13.673-1.104 1.39.44.68.996-.124 1.475.267.53.436.457 1.034.643 1.566.116.332.555.807.677.71.985-.774.858.46 1.282.653.086.039.198.022.066.01.54-.068.16-.632.645-.6.085.096.235.192.224.264-.068.446-.027.92.52.83.551-.09.4-.68.283-1.018-.22-.636-.318-1.333-.872-1.86.453-.123.816-.152 1.101-.316.414-.238-.317-.79.254-1.061.71.013 1.302.249 1.6.996.181.455.501.729 1.163.688-.46-.921-1.054-1.655-1.724-2.497 1.327-.158 1.481.762 1.723 1.619z"/>
            <path d="M73.844 98.21l-.277-.39c-.159.115-.249.285-.155.628.061.045.12.112.142.1l.388-.184-.098-.154zM4.167 21.157c-.261-.759-1.152-1.02-1.591-1.673.176-.515.534-.385.849-.246.524.231.993.302 1.375-.207-.183-.725-.887-.5-1.28-.803-.247-.19-.741-.206-.543-.716.122-.316.373-.284.693-.305.745-.05 1.462-.29 1.814-1.07.917 1.12 1.114 1.683 1.112 3.208.784.06.704-.849 1.34-1.143.832.656 2.023.541 3 1.082.137.075.4.128.492.053 1.124-.922 1.94.211 3.095.321-.653.971-.822 1.72.095 2.536.45.401-.053 1.14-.548 1.445-.735.456-1.494.91-2.363 1.102-.96.214-1.917.44-2.878.646-.652.141-1.268.047-1.844-.318-1.216-.774-2.31-1.74-3.694-2.266-.534-.204-.482-.718.005-1.09.265-.203.744-.012.87-.556zM10.445 55.158c-.351-1.059-.762-1.94-.256-2.96.465-.935.669-1.08 1.734-.798.334.088.613.362 1.03.28.462-.12.05-.453.115-.678.304-1.063 1.026-1.49 2.143-1.417.766.052 1.408.5 2.382.57-.481-.637-.95-1.183-.43-1.949.4-.592-.463-.949-.55-1.444.286-.389.698-.217 1.134-.437-.301-.423.14-.889-.08-1.38-.151-.335-.187-.706-.004-1.01.226-.377.594-.215.937-.129.439.112.532-.368.787-.555.41-.298.715-.74 1.049-1.136.19-.225.35-.488.703-.335 1.229.53 1.8-.275 2.345-1.143.06-.096.14-.179.219-.276.386.067.783.107 1.21.441-.795 1.174-1.627 2.321-2.663 3.307.526.596 1.176.544 1.8.64.799.12.992.511.565 1.181-.4.63-.596 1.355-1.145 1.928-.56.585-.421 1.152.183 1.836.494.562.636 1.216.608 1.945-.028.756-.047 1.457.789 1.96.763.457.54 1.483.858 2.221.18.415.3.908.264 1.352-.044.537.184.674.613.86 1.445.627 1.535.967.976 2.381-.254.64-.831.964-1.213 1.516-.101.426.647.444.499.96-.131.453-.451.645-.82.838-.37.194-.752.296-1.17.313-.805.032-1.64-.212-2.405.232-.763-.606-1.79-.05-2.57-.58-.456-.31-.935-.263-1.25.133-.39.488-.744.664-1.331.354-.5-.263-1.022-.223-1.465.175-.51.457-.832.067-1.29-.324l3.623-2.995c-.305-.454-.912-.433-1.385-.662a.776.776 0 0 1-.46-.69.786.786 0 0 1 .537-.816c.375-.14.82-.136 1.156-.33.385-.22.518-.626.194-1.038-.162-.206-.801-.17-.597-.392.446-.48.026-1.02.29-1.446.157-.253.404-.447.73-.28.257.131.468.372.734.462.97.331 1.644-.253 1.46-1.26-.062-.338-.237-.653-.328-.987-.091-.33-.274-.65-.16-1.02-.443-.214-.918-.079-1.374-.129-.88-.097-1.078-.418-.78-1.276.088-.25.447-.37.326-.804-.617.032-1.246.1-.96.948.325.96.286 1.675-.693 2.201a1.002 1.002 0 0 0-.522 1.04c.085.612-.341 1.12-.333 1.701.01.708-.57 1.122-.8 1.716-.297.774-1.12.31-1.701.443-1.071.246-2.133.546-3.213.74-1.28.23-2.18-.635-2.048-1.863.04-.373.18-.655.48-.886.498-.384.973-.795 1.523-1.249z"/>
        </g>
        <path d="M-12-9h145v128H-12z"/>
    </g>
</svg>
