<svg xmlns="http://www.w3.org/2000/svg" width="135" height="87" viewBox="0 0 135 87">
    <g fill="none" fill-rule="evenodd">
        <g stroke="#3FA9F5">
            <path d="M77.328 38.659c1.298-.376 2.403.417 2.992-1.194-.942-.151-1.762-.591-2.497 1.046-.594-.107-.97.169-1.098.74-.022.097.27.39.365.367.566-.129.84-.507.238-.959zm-8.25-24.153c-.015-.935.791-.948 1.63-1.01.895-.063 2.155.433 2.164-1.237.98.155 1.215-.824 1.918-1.259 1.077 1.568.336 3.352.56 5.008-.032.865.381 1.282 1.24 1.25-.152.957.773 1.205 1.163 1.82-.543 1.114-1.575.54-2.403.68-.136-.346-.215-.945-.418-.992-.742-.17-.865.384-.82.992h-3.713c-2.856.83-4.733 3.336-7.427 4.412v3.865l7.152 2.077-.272 4.68c2.363.002 2.486-2.09 3.492-3.482.861-1.195 2.49-1.824 3.957-2.826 1.365-.772-.213-2.696 1.109-3.73.958-.75 1.746-1.719 2.45-2.43 3.124-.63 4.157 1.222 4.792 3.504 1.481.29 2.89.532 4.16-1.46.529.754 1.382 1.412 1.372 2.054-.038 2.445 1.421 4.04 2.816 5.32-.184 2.023-1.878 2.46-2.455 3.727 1.488.961 1.266 2.383 1.001 3.816-.584.59.084 1.019-.399.41-1.056-1.331-2.418-1.258-3.962-1.225l-.739-2.138c-2.093-1.13-3.425.066-4.66 1.567v3.106c-3.755 1.002-4.015 1.467-7.493 4.21-2.522 1.99-5.567 3.307-8.452 4.967l-.326 3.027-7.283 4.874v7.797h-2.306V61.7c-.545-.314-.96-.743-1.196-.66-1.993.713-3.334-2.285-5.003-1.213-3.349 2.15-8.126-.092-10.881 3.798-1.031 1.862.633 4.556-1.913 5.773 1 1.699 1.946 3.03 1.468 4.845 1.716.983 3.582.288 5.306.525 1.687-.703 1.94-2.413 2.715-3.734.977.134 2.027-.41 2.938.375-1.106 2.176-2.211 4.354-3.365 6.622 1.642 1.173 3.78-.032 6.05.836V86h-1.24c-1.957-1.282-2.265-4.096-4.645-5.013-2.2-.847-4.427-1.693-5.782-3.736h-5.064c-1.725-2.003-4.793-1.8-6.793-4.523-.387-.57.131-1.837-.08-3.462l-3.661-4.514c.584-2.134-2.108-3.504-1.288-5.685-2.695-.778-4.146-3.11-6.026-4.807-1.138-7.052 2.42-11.942 7.434-16.431-.632-1.929-1.462-3.84-2.445-4.911-.31-1.491.405-1.733.752-2.204.374-.292.264-.533-.201-.89-1.529-1.171.278-4.13-2.201-4.63-2.281-.457-4.273-1.973-6.74-1.709-1.207.13-2.438.023-3.61.023-.69 1.643-2.461 1.293-3.592 2.161-.738.567-1.86 1.336-3.254 1.656-1.53-.701-2.583-2.142-3.565-3.348-.16-.947.12-1.454.727-1.712 2.38-1.008 4.783-1.93 6.96-1.166 1.208-.67.831-1.373.957-1.892-.464-1.168-2.034-.194-2.443-1.393 1.338-1.306 3.154-.068 4.634-.72.149-.694.27-1.263.39-1.831 2.861-1.724 6.538-.865 9.294-2.978.262-.2.814.031 1.215-.035 2.456-.412 4.375 1.568 6.915 1.387 2.062-.147 4.169-.237 6.467.642 2.76 1.055 6.297 1.45 9.178-.76.997-.201 1.426 1.042 2.019 1.056 6.024.14 11.88 2.095 17.993 1.542 1.53-.138 2.473-1.13 3.728-1.611.296 1.057-.49 2.171 1.107 2.765.15-.949.587-1.778-1.107-2.765zM104.984 13.752c-.002-1.446-.002-2.889-.002-4.013-.924-2.621-3.417-1.884-4.982-2.743V4.94c1.226-.479 3.152 1.167 3.736-1.258V2.423c3.78 1.072 7.498 2.352 11.387.08.928-.542 2.429-.08 3.667-.08 1.444 0 2.93-.223 4.319.057 1.642.33 2.182-1.461 3.825-1.48 1.807-.02 2.974.969 4.42 1.467 1.228.424 2.326 1.235 3.646 1.966l-2.446.852c.542 3.88-2.935 5.636-4.552 8.444l-1.198-1.21c-.944.736-.86 2.401-2.63 2.785-3.702.803-7.224 2.459-11.615 4.052L107.334 25c-1.727-.967-3.478-1.308-4.804-3.12.018-2.74-.72-5.954 2.454-8.128-.104.607.17.987.74 1.117.096.023.387-.272.366-.37-.128-.575-.505-.852-1.106-.747z"/>
            <path d="M103 3.057v1.216c-1.22.463-3.135-1.127-3.716 1.216-4.631-.886-7.625 2.355-11.146 4.263v1.816c-1.853.104-1.053 1.51-1.24 2.432h-2.476v-2.432c.256-1.953-2.14-.598-2.422-1.89.476-1.007 2.088-.017 2.264-.712.392-1.652-.343-2.307-1.12-2.803 2.361-2.535 5.036-3.287 8.195-3.147 3.88.172 7.773.041 11.661.041zM51 12.352c5.065-4.731 10.004-.85 15-.917V15h-8.173c-.863-.872.578-1.05.875-2.097-2.528-.18-5.022-.36-7.702-.55z"/>
            <path d="M87.016 13.308c.175-.875-.574-2.209 1.158-2.308.263 2.208 2.246.553 3.322 1.571.582.617-.107 1.641.268 2.665.566.197 1.235.43 1.915.665.526.72.337 1.362-.075 1.859-1.59.933-1.93-1.164-3.115-.992-1.23-.166-1.998-1.717-3.473-1.154v-2.306zM83 19.333c1.486.653 2.26-1.141 3.5-1.333.547 2.57 2.351.826 3.5 1.333V22h-2.333c.072-1.155-.575-1.338-1.372-1.334-1.098.005-2.196 0-3.295 0v-1.333zM77.252 16.998c-.865.035-1.282-.408-1.25-1.327h3.038c1.33-.353-.055-2.894 1.96-2.655v3.982h-3.748z"/>
            <path d="M91 19.883c-1.313-.52-3.374 1.27-4-1.368v-1.369c1.699-.67 2.583 1.17 4 1.369v1.368zM74 12h-4c.926-1.147 1.727-1.824 2.853-2 1.653.471.906 1.427 1.147 2zM85 11.025V13h-4c.522-1.559 1.931-2.133 4-1.975zM63.46 8h1.008c.589.443.645 1.006.382 1.602-.337.603-.869.32-1.317.394-.755-.66-.642-1.324-.073-1.996zM84 41h3c-1.77 1.333-1.77 1.333-3 0zM83 19.035v.945c-.651-.113-1.407.278-2-.34.307-1.1 1.341-.403 2-.605zM87.98 22.02c.094.53-.15.865-.655.979-.085.02-.343-.24-.324-.325.114-.505.448-.748.98-.654zM75.006 21c-.035-.594.064-1.136.659-.97.162.046.227.631.335.97h-.994zM81 8.5c-.33.667-.67.667-1 0 .33-.667.67-.667 1 0zM78 38c1.233-1.319 2.056-.994 3-.882-.59 1.19-1.699.604-3 .882zM77.98 38.02c.095.53-.149.865-.654.979-.085.02-.344-.24-.325-.325.114-.505.449-.748.979-.654z"/>
        </g>
        <path d="M-3-28h145v128H-3z"/>
    </g>
</svg>
