<svg xmlns="http://www.w3.org/2000/svg" width="69" height="109" viewBox="0 0 69 109">
    <g fill="none" fill-rule="evenodd">
        <path stroke="#3FA9F5" d="M18.874 49.643c-3.685-3.69-9.142-3.789-11.27-8.078C5.67 37.669 4.428 33.425 1 30.062v-9.674c1.57-2.041 1.789-5.354 4.634-6.481.403-3.236.184-6.06-1.863-8.237 1.676-1.797 1.93.08 2.724.342C8.082 5.04 9.158 3.68 9.35 1.723c6.418-2.315 12.401 1.71 18.688 1.243 1.663 2.565 5.254 3.151 6.266 6.321 3.37-.828 5.442 3.34 8.253 1.844 3.435 2.63 3.234 6.654 6.405 9.518 2.381-.16 5.075.731 6.535 3.54h6.667c1.907 1.428 3.09 3.802 5.836 4.01v6.625c-2.89 2.984-5.63 6.335-4.768 10.943.547 2.928-1.9 4.835-1.765 7.538.108 2.18-1.387 3.886-3.329 3.646-2.466-.304-3.53 2.478-6.142 1.566v7.969l-5.346 4.333v3.69c-1.932 1.427-4.268.159-6.372.859 1.079 2.101 2.348 3.804 1.028 6.195l-3.71.309c-.376 2.261-1.723 3.551-3.948 3.959 1.738 3.347 1.738 3.347-.193 7.187 2.98 3.126 1.297 7.346 1.99 11.165 1.743.72 3.644 1.073 4.585 2.866-.315.329-.623.935-.944.943-5.718.151-9.94-1.855-12.445-7.505-.649-1.46-.695-3.774-2.98-4.74v-8.672c-1.01-.234-1.754-.405-2.498-.576-.218-.456-.595-.903-.625-1.372-.367-5.804.018-11.534-1.372-17.427-1.347-5.696-.292-11.957-.292-18.057z"/>
        <path d="M-37-9h145v128H-37z"/>
    </g>
</svg>
