<svg xmlns="http://www.w3.org/2000/svg" width="146" height="79" viewBox="0 0 146 79">
    <g fill="none" fill-rule="evenodd">
        <g stroke="#3FA9F5">
            <path d="M133.038 15.773c-.088-.05-.132-.086-.182-.097-.03-.007-.093.018-.105.044-.033.07.02.114.085.117.05.002.103-.03.202-.064zM18.363 37.35c.095-.046.27-.077.34-.175.126-.174-.104-.212-.194-.303-.128-.131-.26-.258-.379-.396-.096-.114-.228-.263-.351-.138-.241.244-.53.289-.846.307-.093.006-.176.042-.164.133.008.068.082.188.114.185.534-.056.934.334 1.48.387zm18.765-24.683c.208-.215.516-.125.788-.232-.15-.342-.441-.484-.783-.528-.31-.04-.623-.23-.548-.454.124-.372-.245-.885.327-1.124.513-.215 1.016-.426 1.307-.939.112-.196.38-.278.615-.248.735.092 1.463-.03 2.195-.04.197-.002.385.004.494.191.127.218.016.397-.144.535-.282.242-.31.414.04.643.361.236.261.612.15.938-.145.422-.137.76.281 1.06.416.298.205.588-.11.833-.811.63-1.672 1.132-2.807.913 1.472.594 3.4.216 4.337-.808.092-.1.134-.245.182-.375.148-.4.469-.538.884-.548.471-.011.948-.032 1.199.463.106.21.132.488.477.476.121-.004.226-.081.177-.188-.119-.264.016-.658-.357-.784-.612-.209-1.241-.431-1.894-.174-.449.177-.846.095-1.17-.196-.309-.277-.327-.632-.078-.983.148-.21-.039-.323-.156-.46-.353-.417-.305-.659.203-.868.345-.143.722-.21.967-.526.12-.155.304-.133.453-.026.156.11.147.269.101.437-.05.181-.327.477.078.502.272.017.713.4.885-.176.051-.169.182-.239.373-.268 1.35-.211 2.672-.084 3.977.28.25.07.433.205.396.464-.082.584.443.603.785.76.167.078.371-.039.44-.243.144-.433-.123-1.01-.569-1.19-.423-.173-.829-.393-1.309-.42-.262-.015-.53-.112-.534-.408-.004-.296.254-.394.521-.422 1.024-.11 2.047-.232 3.08-.237.273-.001.54.015.799.136.475.225.937-.051.907-.552-.018-.302.122-.45.389-.534 1.024-.323 2.09-.48 3.151-.59 1.085-.112 2.169-.218 3.251-.364.93-.126 1.875.083 2.824-.011.947-.094 1.872-.297 2.813-.406.097-.012.226-.052.273-.12.509-.732 1.343-.713 2.11-.837.27-.044.554-.03.715.256.029.05.084.132.12.13 1.018-.088 1.871.61 2.965.423 1.292-.22 2.642-.142 3.904.356.039.015.078.031.119.04.254.05.65-.027.664.305.013.315-.294.557-.582.72-.453.258-.974.34-1.477.47-1.11.283-2.213.585-3.397.9.178.123.306.088.44.06 1.33-.262 2.658-.519 4.024-.52.295 0 .598-.03.755.3.128.272.338.143.537.085a6.869 6.869 0 0 1 3.73-.016c1.161.327 2.276.475 3.448.46.565-.006 1.128-.016 1.492-.57.186-.283.56-.317.862-.207.764.277 1.559.29 2.355.318.303.011.584.089.834.247.138.088.263.195.274.38.065 1.174 1.533 2.046 2.51 1.358.719-.506 1.325-.404 2.022-.25.446.1.876.115 1.297-.06.545-.225 1.076.069 1.618.028.864-.064 1.743.034 2.386-.768.27-.338.843-.29 1.296-.347.224-.028.46.071.683-.062-.056-.243-.262-.146-.403-.151-.28-.012-.574.008-.643-.339-.044-.225-.206-.143-.34-.15-.16-.006-.304-.058-.342-.214-.034-.147.052-.28.178-.36.141-.09.295-.056.387.08.235.349.604.19.92.237.496.074 1.134-.102 1.065.793-.023.291.63.354.976.519.892.426 1.837.342 2.727.106.959-.252 1.566.413 2.346.598 1.018.241 2.045.708 3.097.492 1.52-.312 3-.165 4.496.039.508.07 1 .215 1.178.764.122.374.566.235.768.444.28.292.467.11.749-.008.792-.332 1.652-.17 2.482-.178.626-.006 1.254.132 1.883.154.44.016.933.125 1.21-.41.113-.218.403-.178.633-.11.255.077.316.26.235.478-.172.462.22.486.477.49.315.005.806.093.757-.451-.051-.544.276-.632.698-.577 2.178.287 4.401.112 6.561.602.599.136 1.121.44 1.72.576.857.194 1.683.497 2.556.647.491.085.853.398 1.138.802.196.275.455.534.77.082.074-.103.197-.178.326-.152.799.156 1.65-.005 2.41.376.245.122.528.239.49.553-.037.306-.326.31-.582.347-.31.044-.602.173-.929.143-.349-.033-.376.286-.492.472-.263.417-.553.606-1.086.4-.634-.243-1.347-.292-1.85-.827-.261-.28-.67-.186-1.023-.188-.481-.003-.96.053-1.334-.367-.178-.199-.537-.224-.628.068-.284.922-1.158.696-1.807.894-.267.081-.582-.026-.969.137.472.382 1.024.6 1.347 1.06.136.194.418.34.295.613-.135.301-.497.305-.716.216-1.14-.46-2.108.166-3.162.336-1.359.218-2.444.94-3.652 1.43-.336.136-.606.168-.955.036-.77-.292-1.554-.325-2.3.104-.15.085-.34.194-.467.07-.412-.41-.803-.181-1.208-.016-.096.04-.207.097-.3.084-.984-.146-1.373.64-1.948 1.124-.242.203-.324.445.089.584.28.094.403.273.346.555-.051.255-.037.48.264.599.106.042.153.143.108.25-.057.135-.18.128-.313.124-.786-.025-.965.125-.897.815.043.434-.172.592-.575.593-.613.002-1.066.146-1.117.847-.021.296-.335.321-.599.307-.43-.022-.708.122-.857.542-.151.426-.578.62-.969.814-.288.144-.536.014-.593-.251-.158-.733-.61-1.364-.761-2.094-.305-1.456.442-2.7 1.913-3.18 1.29-.42 2.312-1.288 3.496-1.884.352-.177.661-.414 1.083-.452.731-.065.73-.82 1.164-1.173.083-.068-.007-.197-.132-.207-.344-.029-.704-.022-.909.285-.564.841-1.563.687-2.37.962-.154.054-.354-.068-.387-.242-.088-.467-.451-.418-.813-.47-1.502-.219-2.607.556-3.725 1.304-.119.08-.293.2-.293.302-.006.74-.531.716-1.093.789-.534.07-.965.125-1.478-.2-.636-.403-1.457-.452-2.175-.226-1.08.342-2.164.272-3.233.142-1.584-.192-2.992.105-4.257 1.03-.199.145-.38.35-.607.42-1.32.416-2.286 1.397-3.515 1.951-.127.058-.317.087-.313.257.004.182.21.176.337.214.27.079.467.196.637.44.337.489 1.192.578 1.692.228.906-.635 1.834-.333 2.188.714.046.133.053.3.237.31.164.008.175-.154.211-.26.127-.363.513-.55.634-.949.085-.277.427-.22.56.07.116.255.268.544.237.8-.108.875.312 1.596.65 2.347.292.652.246.744-.467.946-.566.161-.766.87-.385 1.4.106.147.254.267.372.408.128.154.158.337.067.51-.112.21-.3.069-.445.043-.923-.16-.835-.169-.887-1.155-.048-.894-.017-1.79-.092-2.682-.03-.35-.165-.836-.43-.85-.316-.016-.571.415-.7.75-.077.198-.06.436-.055.655.015.599-.22 1.131-.64 1.527-1.114 1.05-1.982 2.318-3.294 3.2-.67.45-1.202 1.07-2.003 1.372-.454.17-.83.177-1.244-.053-.548-.306-1.137-.338-1.594.1-.288.276-.489.678-.612 1.057-.219.678-.73 1.055-1.342 1.334-.677.31-.647.272-.26.838.278.407.658.709.969 1.078.785.931.394 2.08-.811 2.338-.349.075-.694.127-1.01.316-.422.252-.663-.004-.544-.358.211-.63-.136-1.258.119-1.886.157-.39-.153-.577-.563-.571-.61.007-.844-.208-.635-.819.15-.438-.277-.883-.787-.81-.528.075-1.1.02-1.568.38-.2.154-.476.226-.69.011-.195-.196-.1-.406.057-.594.13-.156.191-.323.013-.48-.176-.155-.397-.153-.592-.06-.431.208-.874.408-1.267.673-.432.293-.835.606-1.39.66-.175.016-.322.124-.33.312-.007.189.134.294.304.34.433.117.815.25.993.724.088.232.427.19.62.068.529-.338 1.069-.281 1.633-.132.21.055.443.068.412.347-.028.245-.248.21-.434.242-.882.151-1.392.828-2.01 1.339-.2.166.002.366.207.467.896.445 1.06 1.203.951 2.06-.03.232.114.33.254.442.305.245.43.493.074.793-.135.114-.228.217-.005.374.61.429.737 1.122.185 1.59-.576.489-.822 1.211-1.449 1.644-.293.204-.19.656-.431.846-1.232.966-2.314 2.193-4.08 2.3-.185.012-.374-.026-.559-.052-.128-.019-.288-.06-.339.07-.325.838-1.187.745-1.85.94-.89.259-1.051.525-.555 1.251.199.29-.17 1.014-.658 1.294-.379.218-1.011.109-1.197-.205-.187-.318.099-.828.602-1.132.14-.084.521-.037.332-.364-.192-.33.15-.876-.522-1.02-.76-.163-1.651.19-2.146.941-.089.135-.162.282-.269.403-.718.816-.718.885.094 1.665.902.865 1.848 1.705 2.285 2.896.32.874.204 1.749-.198 2.57-.242.494-.815.62-1.297.794-.531.192-.976.442-1.287.91-.15.23-.347.493-.71.377-.32-.103-.247-.38-.249-.615-.003-.344-.124-.528-.539-.587-.595-.085-.87-.587-1.146-1.033-.14-.226-.246-.358-.563-.447-.429-.12-.955-.238-1.177-.729-.066-.147-.204-.19-.367-.167-.184.026-.267.154-.242.299.13.763-.792.828-.999 1.374-.04.107-.276.072-.404-.002-.162-.094-.218-.267-.151-.422.263-.61.04-1.134-.27-1.655-.071-.118-.17-.32-.119-.391.595-.812-.344-1.335-.417-2.023-.04-.376-.357-.524-.732-.185-.243.22-.516.413-.793.593-.345.226-.732.236-1.066.008-.308-.21-.138-.499-.039-.765.15-.401.133-.778-.169-1.131a2.224 2.224 0 0 1-.375-.622c-.158-.404-.33-.733-.835-.872-.33-.092-.61-.362-.424-.792.042-.098.203-.251-.078-.316-.38-.087-.581-.371-.744-.685a.415.415 0 0 0-.597-.165c-.691.487-1.504.43-2.278.586-.503.101-1.076.319-1.235.946-.116.458-.425.744-.932.847-.234.047-.495.11-.646.322-.657.915-1.784 1.36-2.458 2.284-.253.347-.83.523-1.295.675-.407.132-.53.363-.514.71.015.337-.045.68.094 1.01a.496.496 0 0 1 .03.296c-.234.958-.355 1.93-.834 2.848-.29.555-.789.84-1.15 1.281-.255.31-.594.27-.892.042a1.516 1.516 0 0 1-.542-.863c-.25-1.005-.648-1.946-1.284-2.792-.375-.499-.34-1.147-.67-1.675-.69-1.107-.927-2.343-1.039-3.609-.055-.633.12-1.27-.079-1.901-.048-.15-.053-.31-.161-.443-.077-.094-.128-.234-.27-.228-.17.006-.257.137-.275.285-.074.612-.497.793-1.064.788-.605-.006-.984-.41-1.23-.83-.206-.347.315-.49.5-.75a4.647 4.647 0 0 1-1.348-.616c-.643-.418-1.122-.912-1.61-1.445-.161-.178-.375-.178-.632-.105-1.02.292-2.09.164-3.131.209-.477.02-1.038-.132-1.556-.227-.493-.09-.984-.211-1.495-.186-.717.036-1.35-.082-1.643-.825-.085-.218-.288-.279-.52-.25-.228.028-.487.004-.678.101-1.035.53-1.772-.135-2.611-.508-.829-.368-1.344-.978-1.797-1.685-.342-.535-.874-.706-1.508-.638-.102.011-.22.048-.307.015-.682-.257-.469.189-.415.483.135.752.537 1.343 1.148 1.847.533.437 1.008.944 1.048 1.796.327-.329.414-.788.837-.5.331.227.33.548.088.845-.41.502.229.62.307 1.043.231-.339.378-.633.736-.577 1.234.192 1.91-.634 2.67-1.308.144-.127.203-.406.476-.28.265.12.045.315.02.471-.096.583.288 1.123 1.12 1.421.56.2 1.08.411 1.474.866.302.348.381.683.049 1.016-.383.382-.521.984-1.144 1.154-.064.018-.143.119-.146.184-.055 1.197-1.119 1.406-1.963 1.832-.092.047-.22.088-.258.164-.357.725-1.067.717-1.732.73-.52.009-.838.25-1.024.653-.154.334-.377.47-.748.544-.757.151-1.454.442-2.159.776-.757.36-1.457.966-2.41.911-.3-.016-.549.18-.797.336-.746.474-1.489.278-1.712-.523-.211-.755-.663-1.483-.394-2.324.082-.257-.013-.48-.266-.678-.886-.69-1.27-1.792-2.183-2.466-.536-.396-.89-.843-.867-1.56.018-.52-.268-1.013-.659-1.397a8.52 8.52 0 0 1-1.712-2.34c-.23-.47-.626-.85-1.025-1.211-.242-.22-.41-.448-.168-.784.219-.304.025-.575-.192-.786-.684-.664-.7-1.145-.023-1.763a.436.436 0 0 0 .151-.32c.018-.733.246-1.388.767-1.944.061-.063.104-.199.075-.273-.148-.384-.005-.64.314-.882.33-.25.297-.422-.164-.5-.695-.118-1.358-.212-1.997.218-.46.31-.98.216-1.437-.03-.58-.314-1.113-.433-1.684.02-.236.187-.538.178-.839.052a6.453 6.453 0 0 0-1.065-.362c-.657-.146-.89-.638-1.013-1.156-.104-.44-.101-.878-.406-1.281-.309-.408-.03-.882.481-.786 1 .187 1.89.11 2.752-.448.25-.161.653-.113.987-.146.236-.023.472-.068.654-.202 1.077-.794 2.189-.473 3.293-.097 1.495.51 3.01.71 4.584.389.488-.099.718-.301.494-.78-.202-.431-.03-.768.278-1.076.109.073.204.073.278-.047.055.126.15.123.262.078.097.032.196.06.291.098.614.242 1.3.239 1.905.431.717.228 1.427.56 2.057.998.203.14.39.237.561-.032.188-.003.377-.024.563-.005.487.048 1.066.797.9 1.167-.165.368-.345.73-.538 1.085-.277.511-.086.972.5 1.154.199.062.42.079.575.23.878.861 1.877.587 2.877.279.19-.059.406-.235.335-.385-.292-.609.107-1.325-.473-1.922-.533-.548-.405-.832.387-.914.728-.075.572-.537.566-.895-.01-.462-.457-.286-.736-.324-.319-.044-.706.096-.887-.292-.136-.292-.383-.403-.683-.47-.457-.105-.668-.48-.708-.84-.039-.353.23-.674.594-.845.187-.087.403-.197.595-.18.564.05.559-.339.658-.675.127-.43-.285-.294-.456-.403-.139-.088-.186-.209-.225-.345.045-.06.106-.115.13-.183.345-.958.43-2.02 1.22-2.805.014-.013-.045-.09-.07-.137l.147-.176c.32.153.662-.217.969.025.313.248.617.169.94.033.29-.122.632-.06.912-.139.9-.254 1.751.712 2.643.058.024-.017.081.007.123.009.261.013.659.327.743-.036.074-.313-.427-.26-.678-.366-.19-.081-.537-.195-.17-.432.593-.386.703-.84.459-1.467-.138-.355-.079-.726.266-1.034.396-.354.802-.705 1.099-1.154.97-1.468 2.023-2.874 2.48-4.614.477-1.82 1.633-3.403 2.194-5.207.049-.16.01-.218-.129-.266zM78.24 73.994c-.546.022-.959-.51-1.526-.447-.112.012-.265-.124-.342-.08-.691.407-1.267-.237-1.917-.225-.36.008-.504-.338-.515-.684-.012-.398-.167-.693-.43-.959-.393-.398-.488-.943-.509-1.479-.023-.581.327-.784.762-.465.523.383 1.046.363 1.596.098.4-.192.787-.312 1.261-.281.967.063 1.242-.284 1.728-1.685.136-.394.216-.742.735-.777.55-.036.828-.01.986.709.121.554.362 1.174.764 1.644.197.23.274.526-.077.58-.597.092-.644.557-.75 1.013-.032.145-.028.389-.102.42-.914.376-.731 1.326-.931 2.053-.124.453-.329.604-.733.565zM69.858 72.492c.084-.367-.081-.771.37-.783.381-.009.56.304.728.593.09.156.037.37-.104.413-.64.193-.474.735-.53 1.187-.046.363.184.838-.33 1.023-.51.182-.922.025-1.279-.402-.538-.643-1.284-1.057-1.835-1.693-.207-.239-.421-.444-.465-.787-.065-.5-.419-.86-.73-1.179-.732-.747-1.079-1.76-1.769-2.533-.324-.362-.56-.798-1.034-.993a.697.697 0 0 1-.275-.21c-.226-.292-.763-.482-.56-.928.207-.455.608.013.92-.015.664-.06.989.441 1.459.77.845.594 1.355 1.562 2.396 1.964.762.295 1.196 1.14 1.712 1.82.422.556.708 1.253 1.326 1.753z"/>
            <path d="M94.998 39.092c.516.07 1.005-.16 1.515-.167.151-.002.275-.102.345-.245.28-.572.715-.823 1.3-.969 1.064-.265 2-1.513 2.074-2.604.062-.89.295-1.173.9-1.095.489.064.951.815.855 1.416-.028.171-.07.367-.168.494-.623.798-.7 1.8-.893 2.758-.07.353-.254.53-.563.607-.515.13-1.015.302-1.483.58-.138.082-.332.168-.462.124-.606-.21-.949.144-1.315.587-.4.482-.615.43-.944-.116-.075-.122-.1-.348-.282-.266-.181.082-.045.268-.034.411.025.303-.1.52-.37.59-.39.103-.788.14-1.16.347-.205.114-.393-.052-.441-.315-.024-.13-.007-.27-.045-.394-.078-.26-.283-.236-.454-.161-.196.085-.13.252-.02.371.301.331.213.618-.042.925-.105.126-.17.3-.222.465-.088.274-.14.637-.485.552-.297-.072-.6-.356-.568-.696.056-.587-.308-1.269.482-1.745.27-.163.576-.628.901-.931.47-.436.974-.627 1.58-.523zM74.563 75.721c-.77-.228-1.608-.197-2.271-.835-.154-.149-.347-.279-.277-.537.056-.205.236-.299.427-.32.604-.066 1.24-.046 1.735.329.634.48 1.3.423 1.952.332.471-.066.91.001 1.352.078.253.045.438.119.703-.06.431-.292.733-.033.686.536-.034.41.391.605.45.585.61-.206 1.044.485 1.643.362.438-.091.9.002 1.35-.135.26-.078.62-.092.68.32.064.436-.314.315-.524.436-.755.433-1.39.005-2.107-.167-1.211-.289-2.459-.491-3.716-.441-.452.018-.851-.199-1.252-.403-.263-.134-.543-.125-.831-.08zM64.004 62.596c-.024-.476.334-.907.47-1.391.042-.148.212-.236.41-.195.176.038.33.129.299.305-.089.513.12.897.599 1.226.167.115.268.373.271.567.012.65.523.893 1.099 1.198 1.24.655 2.436 1.39 2.208 2.87-.063.412.206.707.457 1.02.17.21.294.465.031.686-.277.235-.54.07-.789-.075-.806-.472-1.616-.902-2.178-1.647a3.159 3.159 0 0 1-.618-1.504c-.143-1.097-1-1.736-1.847-2.404-.228-.18-.448-.325-.412-.656zM86.078 70.174c-.648.042-1.216-.1-1.796-.142-.318-.024-.646-.063-.79.281-.124.302-.099.584.164.836.282.27.504.08.77-.033a6.58 6.58 0 0 1 1.074-.338c.39-.09.702.052.916.355.096.136.195.288.081.445-.137.19-.346.144-.542.089-.128-.037-.248-.096-.378-.127-.343-.082-.632.065-.85.258-.221.194.057.364.146.527.339.627.696 1.246 1.05 1.867.107.187.136.38.054.579-.047.115-.127.214-.28.228-.152.012-.291-.061-.317-.176-.087-.381-.272-.567-.726-.734-.307-.112-.524-.65-.574-1.07-.025-.208.028-.434-.327-.38-.295.046-.312.242-.262.463.095.423 0 .836-.104 1.246-.062.241-.142.5-.507.433-.333-.06-.282-.309-.251-.532.064-.46.155-.913-.463-1.186-.21-.093-.192-.36-.104-.55.367-.794.564-1.625.734-2.467.098-.483.831-.794 1.504-.73 1.055.098 2.131.325 3.128-.247.182-.105.405-.102.53.09.106.164-.003.305-.145.42-.509.413-1.038.776-1.735.595zM105 32.615c-.005.31-.196.449-.514.451-.43.003-.8.139-1.076.44-.297.324-.617.262-.969.106-.974-.433-1.033-.425-1.821.264-.108.094-.22.158-.36.105a.393.393 0 0 1-.254-.343c-.058-.523.328-.826.771-.865.814-.073.935-.61 1.09-1.14.07-.237.025-.52.342-.614.29-.087.444.145.625.29.483.386 1.028.67 1.645.827.28.071.512.169.521.48zM76.855 69.51c-.381-.114-.744.045-1.058.27-.531.383-1.033.189-1.545-.005-.158-.06-.275-.168-.248-.36.03-.227.196-.33.386-.294.475.09.663-.152.725-.578.053-.37.337-.474.63-.531a2.328 2.328 0 0 0 1.331-.764c.24-.27 1.388-.335 1.665-.116.187.147.29.336.25.6-.157 1.058-1.065 1.83-2.136 1.777zM91 68.345c-.477.888.181 1.94-.741 2.677-.252.2.104.274.14.416.057.235.02.436-.28.522-.315.091-.614.027-.8-.2-.108-.132-.018-.27.182-.357.126-.054.409-.04.31-.271-.056-.131-.21-.166-.375-.174-.52-.028-.56-.197-.201-.489.286-.233.13-.522.1-.784-.081-.718.377-1.436 1.14-1.658.352-.102.5.105.525.318zM86.483 64.24c-.25-.007-.583.1-.87.35-.15.131-.32.167-.484.014-.183-.17-.15-.35-.035-.547.313-.534 1.29-.806 1.909-.76.703.054 1.322-.383 1.688-.938.356-.539.648-.409.844-.02.297.584.618 1.295.385 1.889-.24.616-.901 1.035-1.299 1.634-.291.44-1.237-.244-1.315-.996-.062-.602-.128-.662-.823-.627zM86.99 62.27c-.017 0-.309-.27-.324.191-.01.32-.09.612-.486.523-.36-.081-.636-.367-.588-.728.064-.473.114-.816-.411-1.07-.252-.12-.21-.522-.065-.791.147-.274.39-.41.707-.37.281.038.508.166.53.476.033.507.01.622.572.263.586-.373 1.263-.42.826-1.397-.085-.193.27-.424.568-.355.481.114.632.524.678.945.065.604-.847 2.087-1.388 2.304-.132.053-.299.008-.618.008zM86 55.574c-.097.437-.173.796-.516 1.057-.49.375-.649.84-.347 1.39.203.37.285.764-.21.939-.432.151-.71-.15-.812-.522-.078-.283-.272-.374-.536-.483-.547-.223-.765-.847-.396-1.219.522-.526.562-1.15.598-1.794.019-.318-.047-.676.33-.86.382-.185.76-.028 1.057.17.497.331.64.878.832 1.322zM48.01 64.185c-.062-.59.18-1.107.176-1.69-.004-.545.473-.667.778-.23.428.613.749 1.317.968 2.081.21.735-.077 1.31-.75 1.579-.545.216-.82-.024-1.044-.835-.085-.306-.145-.602-.128-.905zM100.504 7.986c-.413.01-.791-.06-1.138-.283-.454-.291-.494-.763-.073-1.142.623-.561 1.3-.668 2.032-.326.528.247 1.06.721 1.615-.075.181-.26.59-.183.864.084a.637.637 0 0 1 .164.66c-.122.383-.301.701-.666.726-.474.03-.947.096-1.421.114-.476.019-.921.324-1.377.242zM80.305 67c-.205-.008-.37 0-.53-.023-.805-.112-1.003-.537-.499-1.068.174-.183.365-.356.546-.533.522-.508.889-.502 1.39.024.057.06.131.111.187.173.191.213.747.247.565.629-.194.41-.587.698-1.142.769-.184.023-.371.021-.517.029zM83 50.89c.229-.766.64-1.372 1.247-1.79.391-.271.846.046.736.504-.159.662-.396 1.312-.67 1.936-.103.236-.332.58-.686.418-.44-.203-.466-.692-.627-1.069zM68.63 3.821c-.66.005-1.315.017-1.957.15-.263.053-.575.055-.66-.181-.07-.195.152-.33.392-.37.485-.083.844-.486 1.305-.41.943.153 1.92-.02 2.838.197.208.05.453.11.452.287 0 .196-.263.2-.479.237-.624.107-1.257.1-1.892.09zM65.946 3c-1.16.01-2.235-.348-3.397-.244-.234.02-.549.002-.549-.235 0-.21.258-.256.523-.286.64-.073 1.275-.178 1.918-.227.693-.053 1.374.176 2.1.019.284-.061.552.154.428.407-.163.334-.525.524-1.023.566zM107.327 7.004c.643.041 1.402.086 2.16.139.274.019.532.11.512.463-.017.302-.257.406-.503.393-1.035-.054-2.07-.12-3.106-.196-.227-.018-.404-.166-.39-.433.017-.276.23-.351.448-.363.254-.014.508-.003.879-.003zM62.468 1.999c-.608-.127-1.259.108-1.894-.073-.25-.072-.579-.11-.574-.396.004-.229.315-.245.515-.3.817-.227 1.673-.18 2.513-.23.219-.012.454.136.675.223.23.09.33.252.287.47-.047.242-.251.3-.49.304-.334.005-.669.002-1.032.002zM137.807 10c.207.017.526.032.842.072.213.029.356.172.35.43-.005.282-.185.355-.393.361-.722.025-1.448-.03-2.165.125-.172.037-.357-.003-.421-.228-.07-.248.058-.416.236-.529.452-.286.953-.193 1.551-.231z"/>
            <path d="M84.384 76.276c.394.04.953-.115 1.52-.222.228-.044.465-.05.7-.054.173-.002.369.034.393.257.027.241-.145.397-.345.41-.997.067-1.968.413-2.981.316-.317-.03-.688-.117-.67-.472.02-.393.426-.249.683-.266.17-.01.34.013.7.031zM86.541 77.999c-.215.008-.417-.025-.502-.248-.068-.177-.057-.425.115-.469.794-.202 1.266-.909 2.018-1.156.28-.093.645-.293.798.153.14.402-.246.451-.5.56-.458.198-.9.406-1.228.797-.172.204-.405.354-.7.363zM60.002 60.527l.093-1.123c.023-.266.197-.436.556-.399.333.035.38.233.335.46-.064.332-.117.665-.166.998-.036.249-.039.56-.475.536-.453-.026-.321-.36-.343-.472zM82.65 77c.63.023.931.35 1.286.62.108.083.072.202-.05.287-.144.104-.346.113-.511.066a13.142 13.142 0 0 1-1.056-.351c-.253-.094-.393-.25-.279-.44.103-.171.36-.181.61-.182zM104.028 7.988c-.103 0-.21.014-.31-.003-.123-.023-.272-.042-.354-.115-.17-.149-.498-.27-.305-.56.344-.518.882-.234 1.343-.217.296.011.59.139.598.447.009.319-.273.42-.584.442-.129.009-.258.012-.388.018v-.012zM65 70.995c-.04-.174-.18-.09-.29-.093-.653-.02-.887-.39-.57-.902l-.013.012c.696.042.692.58.87.988l.003-.005zM144.456 16.864c-.267-.197-.518-.13-.795.064-.187.133-.424.078-.577-.134-.11-.152-.107-.34-.023-.511.108-.22.307-.271.484-.199.324.132.604.056.92-.057.287-.103.542.094.535.47-.007.363-.265.399-.544.367zM93 72.673c-.03.296-.267.386-.566.29-.638-.204-1.31-.287-1.98-.391-.195-.031-.462-.076-.454-.298.01-.226.256-.245.475-.26a6.137 6.137 0 0 1 1.944.19c.293.074.516.23.581.47zM61 63.717c-.075.31-.278.288-.476.279-.397-.018-.515-.336-.524-.716-.005-.25.17-.344.35-.236.262.157.585.26.65.673zM87 58.745c0 .104-.067.186-.223.227-.18.047-.38.039-.493-.058-.27-.23-.622-.367-1.054-.447-.156-.028-.234-.118-.23-.225.006-.136.164-.188.338-.225.535-.114 1.664.382 1.662.728zM107 31.953c.254-.55.882-.769 1.572-.921.154-.034.3-.069.397.054.083.102-.019.256-.104.239-.846-.176-1.09.91-1.865.628zM91.428 47c-.292.007-.474-.074-.418-.15.197-.274-.019-.691.515-.838.18-.049.4.059.38.176-.06.319-.517.497-.477.812zM8.455 41c-.246-.016-.473-.067-.454-.426.029-.553.337-.56.602-.572.184-.01.417.004.396.4-.03.552-.342.538-.544.598zM41 8.482c-.044.35-.17.55-.398.514-.278-.044-.583-.205-.601-.616-.016-.353.28-.389.496-.379.244.012.46.109.503.48zM82 61.295c-.017.24-.504.717-.726.705-.18-.01-.325-.16-.257-.325a1.16 1.16 0 0 1 .756-.666c.158-.048.23.107.227.286zM89.34 47.999c-.228.013-.384-.09-.329-.264.093-.29.205-.616.568-.72.242-.068.41.096.37.313a.83.83 0 0 1-.609.671zM122 20.478c-.019.387-.24.488-.48.516-.25.032-.477-.061-.515-.432-.04-.382.164-.53.42-.557.278-.03.506.077.575.473zM65 71.005c.094.257.416.345.7.468.219.096.368.236.269.431-.039.077-.144.113-.266.089-.27-.055-.37-.2-.428-.379-.066-.21.217-.496-.272-.614l-.003.005zM79 66.353c-.081.405-.274.633-.562.646-.185.009-.435-.03-.438-.365-.003-.386.213-.594.486-.628.211-.025.418.015.514.347zM25.488 60c-.242-.044-.492-.104-.488-.532.003-.445.256-.49.501-.461.235.026.506.093.499.515-.007.422-.27.459-.512.478zM84 59.556c-.023.226-.074.475-.41.44-.434-.044-.515-.377-.581-.654-.052-.218.128-.356.415-.34.438.022.51.295.576.554zM88.446 72c.236.091.521.235.553.632.02.277-.207.39-.411.364-.291-.037-.595-.123-.588-.598.004-.285.18-.395.446-.398zM83 60.304c-.094.346-.277.62-.676.69-.214.038-.363-.098-.315-.289.083-.327.266-.619.66-.698.225-.045.298.125.331.297zM63.33 68.002c.289.046.576.119.658.479.06.266-.118.384-.327.375-.344-.014-.616-.19-.66-.592-.02-.2.15-.277.33-.262zM73.568 72c-.335-.008-.524-.2-.563-.506-.035-.28.111-.49.417-.494.317-.005.539.168.574.49.032.29-.149.45-.428.51zM61 2.498c.013.385-.204.494-.474.5-.241.005-.524.031-.526-.405 0-.323.091-.579.41-.592.296-.012.55.056.59.497zM64.997 69.583c.024.253-.087.412-.322.417-.413.008-.613-.244-.669-.599-.034-.215.074-.402.31-.401.407 0 .586.277.68.583zM87 70.468c-.016.336-.201.5-.475.486-.248-.01-.506-.118-.524-.458-.018-.346.213-.48.479-.495.273-.015.467.125.52.467zM88.98 75.48c-.056.328-.265.484-.571.454-.28-.027-.397-.248-.408-.508-.012-.3.18-.425.45-.426.314-.003.513.146.529.48z"/>
            <path d="M64.593 69.86c-.108-.058-.211-.134-.326-.17-.246-.078-.295-.252-.254-.472.028-.155.159-.248.288-.21.25.079.197.307.197.509 0 .122.048.244.074.366l.02-.022zM47.575 26.004c.465 1.55.928 3.1 1.398 4.649.077.254-.01.346-.256.346-.807-.002-1.616-.004-2.424.001-.307.002-.334-.141-.255-.404.46-1.53.912-3.064 1.365-4.596l.172.004zM78 30.57c-.175 2.002-1.142 2.374-2.88 2.43-.565.016-.938-.282-1.078-.793-.141-.518.08-.952.547-1.2.959-.508 2.038-.722 3.085-.984.585-.146.14.439.326.548z"/>
        </g>
        <path d="M0-23h145v128H0z"/>
    </g>
</svg>
