<svg xmlns="http://www.w3.org/2000/svg" width="111" height="112" viewBox="0 0 111 112">
    <g fill="none" fill-rule="evenodd">
        <g stroke="#3FA9F5">
            <path d="M103 94v-9.97c3.516-.385 1.514 3.038 2.784 3.862 1.257 1.49 2.825.515 4.216.796V94h-7zM55.468 26.291v8.558c2.175 2.677 4.537 4.893 8.915 3.59 1.4-4.705 2.914-9.799 4.589-15.439 1.858 6.89 1.858 6.89 6.29 11.91.006 2.503.006 5.01.01 7.512 5.462 4.44 6.825 11.3 9.633 15.576.831 5.345-4.121 7.733-2.244 11.664-4.878 6.6-12.583 10.603-15.73 18.647-5.373-.571-9.828 5.951-17.808.509-1.457-1.331-2.664-5.95-4.482-10.378l-2.575 2.61c-2.36-1.803-1.18-6.392-3.407-6.415-6.045-2.309-9.773 1.045-13.946 1.497-3.923.426-7.25 2.526-11.28 3.02-4.055.499-7.802 3.512-12.064 1.294-1.163-2.765.667-4.004 2.127-5.412.002-7.518.002-15.03.002-22.693 3.854-.537 6.026-3.57 8.626-6.127h7.785c3.295-6.74 10.464-9.726 14.355-14.89 3.097-.563 3.827 1.236 5.044 2.212 2.998-2.337 5.37-4.986 3.062-10.09 5.638.276 8.809 4.294 13.098 2.845zM58 3.815c.378-3.964 3.726-2.725 5.345-2.262 4.533 1.302 8.845 3.38 13.277 5.166 1.197 3.804 4.138 7.188 3.195 11.642-1.969.318-2.405-1.687-3.804-2.458-3.391-.5-5.548 4.313-8.554 2.802-5.19-2.271-4-9.108-9.459-10.042V3.815zM58 101h-5.898c-1.567-1.067-.94-2.441-1.102-3.603 1.81-2.281 3.994-1.145 6.012-.879 1.307.89.678 2.264.988 4.482zM84 106.113v3.81c-3.306 1.738-6.751 1.052-12 .172 5.18-1.412 7.652-4.75 12-3.982z"/>
            <path d="M58 4.043v4.868c-3.42.472-5.687-.937-7-4.08 2.3-1.437 4.714-.513 7-.788zM86 20.742c-1.875 1.692-4.495 1.783-4.931-.374-.552-2.732 2.361-.402 3.536-1.121.117-.07.894.947 1.395 1.495zM83 105.958c.213-4.361 3.105-2.478 5-2.916-.213 4.361-3.105 2.478-5 2.916zM88.04 102.96c-.19-1.059.299-1.728 1.308-1.958.17-.038.688.48.65.65-.23 1.01-.9 1.498-1.958 1.308zM94 99c1.333.994 1.333 2.006 0 3-1.333-.994-1.333-2.006 0-3zM101.96 93.04c.19 1.059-.299 1.728-1.308 1.958-.17.038-.688-.48-.65-.65.23-1.01.9-1.498 1.958-1.308z"/>
        </g>
        <path d="M-18-8h145v128H-18z"/>
    </g>
</svg>
